<svg width="613" height="333" viewBox="0 0 613 333" fill="none" xmlns="http://www.w3.org/2000/svg">
<path d="M4.554 19V7.604L12.122 19H14.894V2.918H12.122V14.314L4.576 2.918H1.782V19H4.554ZM22.9199 19.286C25.7579 19.286 27.7379 17.856 28.1999 15.48H25.7139C25.4059 16.514 24.4379 17.086 22.9639 17.086C21.1819 17.086 20.1699 16.118 19.9719 14.204L28.1559 14.182V13.368C28.1559 9.98 26.0879 7.802 22.8319 7.802C19.6419 7.802 17.4199 10.156 17.4199 13.566C17.4199 16.932 19.6859 19.286 22.9199 19.286ZM22.8539 10.002C24.4599 10.002 25.4939 10.992 25.4939 12.488H20.0379C20.3019 10.86 21.2699 10.002 22.8539 10.002ZM32.2293 19H34.8473L36.3433 14.336C36.8933 12.554 37.0913 11.784 37.2013 11.278C37.2893 11.828 37.5313 12.862 37.9713 14.292L39.4673 19H41.9753L45.7373 8.132H42.8993L41.4473 12.796C41.2493 13.478 40.8973 14.776 40.7213 15.59C40.5893 14.864 40.1493 13.236 40.0173 12.796L38.5653 8.132H35.8373L34.3413 12.796C33.9893 13.874 33.7913 14.556 33.5933 15.612C33.3953 14.6 33.1753 13.654 32.9333 12.796L31.5033 8.132H28.7093L32.2293 19ZM53.5783 13.126C53.5783 16.91 56.0423 19.264 59.9363 19.264C63.8523 19.264 66.3163 16.888 66.3163 13.126V2.918H63.5003V12.95C63.5003 15.238 62.2243 16.536 59.9363 16.536C57.6483 16.536 56.3943 15.26 56.3943 12.95V2.918H53.5783V13.126ZM68.3977 15.7C68.3977 17.834 70.1137 19.286 72.8197 19.286C75.5037 19.286 77.3737 17.922 77.3737 15.722C77.3737 14.05 76.4497 13.214 74.6237 12.796L72.6657 12.334C71.7417 12.114 71.2577 11.718 71.2577 11.102C71.2577 10.288 71.8737 9.804 72.9297 9.804C73.9637 9.804 74.5797 10.398 74.6017 11.322H77.1537C77.1317 9.21 75.4817 7.802 73.0397 7.802C70.5317 7.802 68.7277 9.078 68.7277 11.212C68.7277 12.95 69.6737 13.874 71.6317 14.314L73.5897 14.776C74.5577 14.996 74.8437 15.392 74.8437 15.942C74.8437 16.734 74.1617 17.24 72.9077 17.24C71.6757 17.24 70.9717 16.646 70.9497 15.7H68.3977ZM84.2793 19.286C87.1173 19.286 89.0973 17.856 89.5593 15.48H87.0733C86.7653 16.514 85.7973 17.086 84.3233 17.086C82.5413 17.086 81.5293 16.118 81.3313 14.204L89.5153 14.182V13.368C89.5153 9.98 87.4473 7.802 84.1913 7.802C81.0013 7.802 78.7793 10.156 78.7793 13.566C78.7793 16.932 81.0453 19.286 84.2793 19.286ZM84.2133 10.002C85.8193 10.002 86.8533 10.992 86.8533 12.488H81.3973C81.6613 10.86 82.6293 10.002 84.2133 10.002ZM98.4833 8.088C98.0433 7.978 97.6693 7.934 97.2953 7.934C95.8433 7.934 94.8093 8.66 94.3473 9.738L94.1933 8.154H91.6633V19H94.3473V13.72C94.3473 11.608 95.5573 10.574 97.4933 10.574H98.4833V8.088Z" fill="white"/>
<path d="M238.28 15.242C238.28 16.978 239.316 18.168 241.122 18.168C242.816 18.168 243.992 17.076 243.992 15.256V7.976H242.984V15.228C242.984 16.418 242.396 17.216 241.122 17.216C239.904 17.216 239.26 16.432 239.26 15.242V14.85H238.28V15.242ZM245.669 14.612C245.669 16.67 247.125 18.168 249.113 18.168C251.101 18.168 252.557 16.67 252.557 14.612C252.557 12.54 251.101 11.042 249.113 11.042C247.125 11.042 245.669 12.54 245.669 14.612ZM246.649 14.598C246.649 13.03 247.657 11.91 249.113 11.91C250.555 11.91 251.577 13.03 251.577 14.598C251.577 16.194 250.555 17.3 249.113 17.3C247.657 17.3 246.649 16.194 246.649 14.598ZM254.578 9.362C254.97 9.362 255.306 9.04 255.306 8.648C255.306 8.256 254.97 7.92 254.578 7.92C254.186 7.92 253.864 8.256 253.864 8.648C253.864 9.04 254.186 9.362 254.578 9.362ZM254.102 18H255.068V11.224H254.102V18ZM258.048 18V14.458C258.048 12.932 258.832 11.924 260.218 11.924C261.338 11.924 262.052 12.484 262.052 14.066V18H263.018V13.856C263.018 12.148 262.248 11.042 260.386 11.042C259.406 11.042 258.51 11.532 258.062 12.4L257.922 11.224H257.082V18H258.048ZM270.03 18V13.086C270.03 11.56 270.002 10.454 269.946 10.076L273.208 18H274.174L277.436 10.034C277.38 10.72 277.352 11.49 277.352 13.24V18H278.346V7.976H277.338L273.684 16.81L270.03 7.976H269.036V18H270.03ZM283.413 18.168C285.009 18.168 286.059 17.398 286.423 15.97H285.499C285.247 16.866 284.533 17.342 283.427 17.342C281.971 17.342 281.103 16.39 281.033 14.738H286.423V14.262C286.423 12.344 285.177 11.042 283.343 11.042C281.41 11.042 280.095 12.498 280.095 14.612C280.095 16.74 281.425 18.168 283.413 18.168ZM283.343 11.868C284.617 11.868 285.457 12.736 285.457 14.038H281.061C281.229 12.708 282.069 11.868 283.343 11.868ZM288.933 18V13.8C288.933 12.764 289.619 11.924 290.753 11.924C291.775 11.924 292.433 12.596 292.433 13.744V18H293.385V13.814C293.385 12.764 294.057 11.91 295.191 11.91C296.227 11.91 296.871 12.596 296.871 13.758V18H297.809V13.562C297.809 11.994 296.843 11.042 295.373 11.042C294.281 11.042 293.455 11.602 293.147 12.484C292.825 11.602 292.027 11.042 290.963 11.042C290.011 11.042 289.255 11.476 288.919 12.19L288.807 11.224H287.967V18H288.933ZM300.592 18L300.69 16.614C301.166 17.664 302.104 18.168 303.238 18.168C305.212 18.168 306.388 16.656 306.388 14.626C306.388 12.582 305.24 11.042 303.266 11.042C302.118 11.042 301.194 11.546 300.718 12.54V7.794H299.752V18H300.592ZM300.732 14.598C300.732 13.044 301.6 11.91 303.084 11.91C304.554 11.91 305.408 13.044 305.408 14.598C305.408 16.166 304.554 17.286 303.084 17.286C301.6 17.286 300.732 16.166 300.732 14.598ZM310.77 18.168C312.366 18.168 313.416 17.398 313.78 15.97H312.856C312.604 16.866 311.89 17.342 310.784 17.342C309.328 17.342 308.46 16.39 308.39 14.738H313.78V14.262C313.78 12.344 312.534 11.042 310.7 11.042C308.768 11.042 307.452 12.498 307.452 14.612C307.452 16.74 308.782 18.168 310.77 18.168ZM310.7 11.868C311.974 11.868 312.814 12.736 312.814 14.038H308.418C308.586 12.708 309.426 11.868 310.7 11.868ZM318.866 11.14C318.628 11.084 318.446 11.07 318.236 11.07C317.284 11.07 316.57 11.546 316.304 12.274L316.234 11.224H315.324V18H316.29V14.136C316.29 12.848 317.088 12.008 318.334 12.008H318.866V11.14Z" fill="white"/>
<circle cx="220.5" cy="13.5" r="7.5" fill="#36DFAE"/>
<path d="M383.226 7.976H382.218V18H383.226V7.976ZM386.419 18V14.458C386.419 12.932 387.203 11.924 388.589 11.924C389.709 11.924 390.423 12.484 390.423 14.066V18H391.389V13.856C391.389 12.148 390.619 11.042 388.757 11.042C387.777 11.042 386.881 11.532 386.433 12.4L386.293 11.224H385.453V18H386.419ZM395.068 18H396.034L398.848 11.224H397.854L396.076 15.592C395.88 16.082 395.698 16.53 395.572 16.992C395.446 16.544 395.264 16.082 395.082 15.592L393.332 11.224H392.296L395.068 18ZM402.528 18.168C404.124 18.168 405.174 17.398 405.538 15.97H404.614C404.362 16.866 403.648 17.342 402.542 17.342C401.086 17.342 400.218 16.39 400.148 14.738H405.538V14.262C405.538 12.344 404.292 11.042 402.458 11.042C400.526 11.042 399.21 12.498 399.21 14.612C399.21 16.74 400.54 18.168 402.528 18.168ZM402.458 11.868C403.732 11.868 404.572 12.736 404.572 14.038H400.176C400.344 12.708 401.184 11.868 402.458 11.868ZM406.508 16.096C406.508 17.356 407.46 18.168 408.986 18.168C410.526 18.168 411.562 17.37 411.562 16.152C411.562 15.172 411.03 14.626 409.854 14.332L408.692 14.038C407.95 13.856 407.586 13.492 407.586 12.974C407.586 12.246 408.118 11.84 409.07 11.84C409.98 11.84 410.526 12.302 410.554 13.086H411.492C411.45 11.826 410.526 11.042 409.098 11.042C407.642 11.042 406.648 11.798 406.648 12.988C406.648 13.912 407.222 14.528 408.398 14.822L409.56 15.116C410.358 15.312 410.638 15.634 410.638 16.194C410.638 16.922 410.022 17.37 408.972 17.37C408.02 17.37 407.432 16.88 407.432 16.096H406.508ZM414.707 18V12.036H416.065V11.224H414.707V9.082H413.755V11.224H412.397V12.036H413.755V18H414.707ZM420.096 18.168C421.692 18.168 422.742 17.398 423.106 15.97H422.182C421.93 16.866 421.216 17.342 420.11 17.342C418.654 17.342 417.786 16.39 417.716 14.738H423.106V14.262C423.106 12.344 421.86 11.042 420.026 11.042C418.094 11.042 416.778 12.498 416.778 14.612C416.778 16.74 418.108 18.168 420.096 18.168ZM420.026 11.868C421.3 11.868 422.14 12.736 422.14 14.038H417.744C417.912 12.708 418.752 11.868 420.026 11.868ZM427.311 18.168C428.445 18.168 429.397 17.664 429.873 16.614L429.971 18H430.811V7.794H429.845V12.512C429.369 11.532 428.473 11.042 427.353 11.042C425.337 11.042 424.175 12.582 424.175 14.626C424.175 16.656 425.337 18.168 427.311 18.168ZM427.479 17.286C426.009 17.286 425.155 16.166 425.155 14.598C425.155 13.044 426.009 11.91 427.479 11.91C428.963 11.91 429.831 13.044 429.831 14.598C429.831 16.166 428.963 17.286 427.479 17.286Z" fill="white"/>
<circle cx="363.5" cy="13.5" r="7.5" fill="#33A1AA"/>
<path d="M0.77 297.988C0.77 301.11 2.268 303.182 4.788 303.182C7.294 303.182 8.792 301.11 8.792 297.988C8.792 294.88 7.266 292.78 4.788 292.78C2.296 292.78 0.77 294.88 0.77 297.988ZM1.764 297.988C1.764 295.37 2.87 293.704 4.788 293.704C6.706 293.704 7.812 295.37 7.812 297.988C7.812 300.592 6.706 302.272 4.788 302.272C2.87 302.272 1.764 300.592 1.764 297.988Z" fill="white"/>
<path d="M43.28 326.242C43.28 327.978 44.316 329.168 46.122 329.168C47.816 329.168 48.992 328.076 48.992 326.256V318.976H47.984V326.228C47.984 327.418 47.396 328.216 46.122 328.216C44.904 328.216 44.26 327.432 44.26 326.242V325.85H43.28V326.242ZM53.0907 329.168C54.2387 329.168 55.1627 328.664 55.5827 327.81L55.7087 329H56.5207V324.618C56.5207 322.826 55.3727 322.042 53.8047 322.042C52.1387 322.042 51.0187 322.924 51.0187 324.296H51.9007C51.9007 323.386 52.6007 322.854 53.7767 322.854C54.7707 322.854 55.5687 323.274 55.5687 324.604V324.828L53.3287 325.01C51.7467 325.136 50.7947 325.92 50.7947 327.166C50.7947 328.356 51.6487 329.168 53.0907 329.168ZM53.3147 328.384C52.3907 328.384 51.7747 327.964 51.7747 327.138C51.7747 326.382 52.2927 325.822 53.5667 325.71L55.5687 325.556V325.92C55.5687 327.39 54.7427 328.384 53.3147 328.384ZM59.4252 329V325.458C59.4252 323.932 60.2092 322.924 61.5952 322.924C62.7152 322.924 63.4292 323.484 63.4292 325.066V329H64.3952V324.856C64.3952 323.148 63.6252 322.042 61.7632 322.042C60.7832 322.042 59.8872 322.532 59.4392 323.4L59.2992 322.224H58.4592V329H59.4252Z" fill="white"/>
<path d="M98.328 324.59V323.68H94.226V319.9H99.126V318.976H93.218V329H94.226V324.59H98.328ZM102.918 329.168C104.514 329.168 105.564 328.398 105.928 326.97H105.004C104.752 327.866 104.038 328.342 102.932 328.342C101.476 328.342 100.608 327.39 100.538 325.738H105.928V325.262C105.928 323.344 104.682 322.042 102.848 322.042C100.916 322.042 99.6004 323.498 99.6004 325.612C99.6004 327.74 100.93 329.168 102.918 329.168ZM102.848 322.868C104.122 322.868 104.962 323.736 104.962 325.038H100.566C100.734 323.708 101.574 322.868 102.848 322.868ZM108.313 329L108.411 327.614C108.887 328.664 109.825 329.168 110.959 329.168C112.933 329.168 114.109 327.656 114.109 325.626C114.109 323.582 112.961 322.042 110.987 322.042C109.839 322.042 108.915 322.546 108.439 323.54V318.794H107.473V329H108.313ZM108.453 325.598C108.453 324.044 109.321 322.91 110.805 322.91C112.275 322.91 113.129 324.044 113.129 325.598C113.129 327.166 112.275 328.286 110.805 328.286C109.321 328.286 108.453 327.166 108.453 325.598Z" fill="white"/>
<path d="M144.212 329V324.086C144.212 322.56 144.184 321.454 144.128 321.076L147.39 329H148.356L151.618 321.034C151.562 321.72 151.534 322.49 151.534 324.24V329H152.528V318.976H151.52L147.866 327.81L144.212 318.976H143.218V329H144.212ZM156.698 329.168C157.846 329.168 158.77 328.664 159.19 327.81L159.316 329H160.128V324.618C160.128 322.826 158.98 322.042 157.412 322.042C155.746 322.042 154.626 322.924 154.626 324.296H155.508C155.508 323.386 156.208 322.854 157.384 322.854C158.378 322.854 159.176 323.274 159.176 324.604V324.828L156.936 325.01C155.354 325.136 154.402 325.92 154.402 327.166C154.402 328.356 155.256 329.168 156.698 329.168ZM156.922 328.384C155.998 328.384 155.382 327.964 155.382 327.138C155.382 326.382 155.9 325.822 157.174 325.71L159.176 325.556V325.92C159.176 327.39 158.35 328.384 156.922 328.384ZM165.609 322.14C165.371 322.084 165.189 322.07 164.979 322.07C164.027 322.07 163.313 322.546 163.047 323.274L162.977 322.224H162.067V329H163.033V325.136C163.033 323.848 163.831 323.008 165.077 323.008H165.609V322.14Z" fill="white"/>
<path d="M192.218 329L193.198 326.34H197.818L198.798 329H199.848L196.124 318.976H194.878L191.196 329H192.218ZM195.368 320.39C195.424 320.25 195.48 320.068 195.494 319.984C195.508 320.082 195.578 320.25 195.62 320.39L197.496 325.458H193.506L195.368 320.39ZM201.031 331.954H201.997V327.698C202.473 328.678 203.383 329.168 204.531 329.168C206.533 329.168 207.667 327.628 207.667 325.584C207.667 323.54 206.491 322.042 204.531 322.042C203.397 322.042 202.445 322.546 201.969 323.596L201.871 322.224H201.031V331.954ZM202.011 325.612C202.011 324.044 202.879 322.924 204.363 322.924C205.833 322.924 206.687 324.044 206.687 325.612C206.687 327.166 205.833 328.3 204.363 328.3C202.879 328.3 202.011 327.166 202.011 325.612ZM212.749 322.14C212.511 322.084 212.329 322.07 212.119 322.07C211.167 322.07 210.453 322.546 210.187 323.274L210.117 322.224H209.207V329H210.173V325.136C210.173 323.848 210.971 323.008 212.217 323.008H212.749V322.14Z" fill="white"/>
<path d="M243.212 329V324.086C243.212 322.56 243.184 321.454 243.128 321.076L246.39 329H247.356L250.618 321.034C250.562 321.72 250.534 322.49 250.534 324.24V329H251.528V318.976H250.52L246.866 327.81L243.212 318.976H242.218V329H243.212ZM255.698 329.168C256.846 329.168 257.77 328.664 258.19 327.81L258.316 329H259.128V324.618C259.128 322.826 257.98 322.042 256.412 322.042C254.746 322.042 253.626 322.924 253.626 324.296H254.508C254.508 323.386 255.208 322.854 256.384 322.854C257.378 322.854 258.176 323.274 258.176 324.604V324.828L255.936 325.01C254.354 325.136 253.402 325.92 253.402 327.166C253.402 328.356 254.256 329.168 255.698 329.168ZM255.922 328.384C254.998 328.384 254.382 327.964 254.382 327.138C254.382 326.382 254.9 325.822 256.174 325.71L258.176 325.556V325.92C258.176 327.39 257.35 328.384 255.922 328.384ZM260.23 331.954C260.538 332.024 260.846 332.052 261.252 332.052C262.218 332.052 262.876 331.618 263.268 330.554L266.376 322.224H265.382L263.24 328.132L261.056 322.224H260.034L262.778 329.406L262.484 330.204C262.148 331.114 261.56 331.156 260.972 331.156H260.23V331.954Z" fill="white"/>
<path d="M290.28 326.242C290.28 327.978 291.316 329.168 293.122 329.168C294.816 329.168 295.992 328.076 295.992 326.256V318.976H294.984V326.228C294.984 327.418 294.396 328.216 293.122 328.216C291.904 328.216 291.26 327.432 291.26 326.242V325.85H290.28V326.242ZM302.905 322.224V325.822C302.905 327.432 302.135 328.3 300.833 328.3C299.755 328.3 299.041 327.726 299.041 326.116V322.21H298.061V326.424C298.061 328.076 298.929 329.168 300.525 329.168C301.589 329.168 302.527 328.636 302.905 327.852L303.031 329H303.871V322.224H302.905ZM306.849 329V325.458C306.849 323.932 307.633 322.924 309.019 322.924C310.139 322.924 310.853 323.484 310.853 325.066V329H311.819V324.856C311.819 323.148 311.049 322.042 309.187 322.042C308.207 322.042 307.311 322.532 306.863 323.4L306.723 322.224H305.883V329H306.849Z" fill="white"/>
<path d="M339.28 326.242C339.28 327.978 340.316 329.168 342.122 329.168C343.816 329.168 344.992 328.076 344.992 326.256V318.976H343.984V326.228C343.984 327.418 343.396 328.216 342.122 328.216C340.904 328.216 340.26 327.432 340.26 326.242V325.85H339.28V326.242ZM351.905 322.224V325.822C351.905 327.432 351.135 328.3 349.833 328.3C348.755 328.3 348.041 327.726 348.041 326.116V322.21H347.061V326.424C347.061 328.076 347.929 329.168 349.525 329.168C350.589 329.168 351.527 328.636 351.905 327.852L352.031 329H352.871V322.224H351.905ZM355.891 329V318.794H354.925V329H355.891Z" fill="white"/>
<path d="M389.218 329L390.198 326.34H394.818L395.798 329H396.848L393.124 318.976H391.878L388.196 329H389.218ZM392.368 320.39C392.424 320.25 392.48 320.068 392.494 319.984C392.508 320.082 392.578 320.25 392.62 320.39L394.496 325.458H390.506L392.368 320.39ZM402.668 322.224V325.822C402.668 327.432 401.898 328.3 400.596 328.3C399.518 328.3 398.804 327.726 398.804 326.116V322.21H397.824V326.424C397.824 328.076 398.692 329.168 400.288 329.168C401.352 329.168 402.29 328.636 402.668 327.852L402.794 329H403.634V322.224H402.668ZM405.185 325.416C405.185 327.264 406.361 328.79 408.293 328.79C409.455 328.79 410.393 328.23 410.855 327.278V328.888C410.855 330.302 409.931 331.24 408.545 331.24C407.327 331.24 406.487 330.596 406.277 329.504H405.311C405.577 331.142 406.795 332.122 408.531 332.122C410.519 332.122 411.807 330.806 411.807 328.79V322.224H410.967L410.869 323.582C410.435 322.588 409.539 322.042 408.363 322.042C406.375 322.042 405.185 323.568 405.185 325.416ZM406.151 325.402C406.151 324.03 406.991 322.896 408.447 322.896C409.931 322.896 410.771 323.96 410.771 325.402C410.771 326.858 409.903 327.922 408.433 327.922C407.005 327.922 406.151 326.788 406.151 325.402Z" fill="white"/>
<path d="M438.616 321.58C438.616 322.952 439.442 323.848 441.01 324.226L442.704 324.646C443.782 324.898 444.286 325.486 444.286 326.382C444.286 327.53 443.348 328.244 441.878 328.244C440.506 328.244 439.582 327.558 439.526 326.508H438.49C438.616 328.146 439.932 329.168 441.878 329.168C443.95 329.168 445.294 328.062 445.294 326.326C445.294 324.968 444.482 324.072 442.914 323.694L441.192 323.274C440.142 323.008 439.624 322.448 439.624 321.566C439.624 320.432 440.548 319.704 441.962 319.704C443.222 319.704 443.992 320.348 444.104 321.482H445.126C444.972 319.802 443.782 318.794 441.976 318.794C439.96 318.794 438.616 319.9 438.616 321.58ZM449.739 329.168C451.335 329.168 452.385 328.398 452.749 326.97H451.825C451.573 327.866 450.859 328.342 449.753 328.342C448.297 328.342 447.429 327.39 447.359 325.738H452.749V325.262C452.749 323.344 451.503 322.042 449.669 322.042C447.737 322.042 446.421 323.498 446.421 325.612C446.421 327.74 447.751 329.168 449.739 329.168ZM449.669 322.868C450.943 322.868 451.783 323.736 451.783 325.038H447.387C447.555 323.708 448.395 322.868 449.669 322.868ZM454.293 331.954H455.259V327.698C455.735 328.678 456.645 329.168 457.793 329.168C459.795 329.168 460.929 327.628 460.929 325.584C460.929 323.54 459.753 322.042 457.793 322.042C456.659 322.042 455.707 322.546 455.231 323.596L455.133 322.224H454.293V331.954ZM455.273 325.612C455.273 324.044 456.141 322.924 457.625 322.924C459.095 322.924 459.949 324.044 459.949 325.612C459.949 327.166 459.095 328.3 457.625 328.3C456.141 328.3 455.273 327.166 455.273 325.612Z" fill="white"/>
<path d="M497.15 323.988C497.15 320.936 495.19 318.794 492.376 318.794C489.576 318.794 487.602 320.95 487.602 323.988C487.602 327.026 489.562 329.168 492.376 329.168C495.176 329.168 497.15 327.026 497.15 323.988ZM496.114 323.988C496.114 326.48 494.588 328.202 492.376 328.202C490.164 328.202 488.652 326.494 488.652 323.988C488.652 321.482 490.164 319.774 492.376 319.774C494.588 319.774 496.114 321.482 496.114 323.988ZM498.292 325.626C498.292 327.754 499.594 329.168 501.512 329.168C503.052 329.168 504.256 328.258 504.578 326.872H503.598C503.332 327.74 502.52 328.3 501.512 328.3C500.14 328.3 499.244 327.222 499.244 325.612C499.244 323.946 500.21 322.896 501.582 322.896C502.52 322.896 503.332 323.414 503.584 324.352H504.55C504.284 322.952 503.136 322.042 501.568 322.042C499.594 322.042 498.292 323.498 498.292 325.626ZM507.595 329V323.036H508.953V322.224H507.595V320.082H506.643V322.224H505.285V323.036H506.643V329H507.595Z" fill="white"/>
<path d="M539.226 329V320.656L544.756 329H545.75V318.976H544.756V327.32L539.24 318.976H538.218V329H539.226ZM547.512 325.612C547.512 327.67 548.968 329.168 550.956 329.168C552.944 329.168 554.4 327.67 554.4 325.612C554.4 323.54 552.944 322.042 550.956 322.042C548.968 322.042 547.512 323.54 547.512 325.612ZM548.492 325.598C548.492 324.03 549.5 322.91 550.956 322.91C552.398 322.91 553.42 324.03 553.42 325.598C553.42 327.194 552.398 328.3 550.956 328.3C549.5 328.3 548.492 327.194 548.492 325.598ZM557.535 329H558.501L561.315 322.224H560.321L558.543 326.592C558.347 327.082 558.165 327.53 558.039 327.992C557.913 327.544 557.731 327.082 557.549 326.592L555.799 322.224H554.763L557.535 329Z" fill="white"/>
<path d="M590.27 329C593.28 329 595.282 326.984 595.282 323.988C595.282 320.992 593.266 318.976 590.242 318.976H587.218V329H590.27ZM590.2 319.9C592.678 319.9 594.246 321.482 594.246 323.988C594.246 326.48 592.678 328.076 590.228 328.076H588.226V319.9H590.2ZM599.735 329.168C601.331 329.168 602.381 328.398 602.745 326.97H601.821C601.569 327.866 600.855 328.342 599.749 328.342C598.293 328.342 597.425 327.39 597.355 325.738H602.745V325.262C602.745 323.344 601.499 322.042 599.665 322.042C597.733 322.042 596.417 323.498 596.417 325.612C596.417 327.74 597.747 329.168 599.735 329.168ZM599.665 322.868C600.939 322.868 601.779 323.736 601.779 325.038H597.383C597.551 323.708 598.391 322.868 599.665 322.868ZM603.813 325.626C603.813 327.754 605.115 329.168 607.033 329.168C608.573 329.168 609.777 328.258 610.099 326.872H609.119C608.853 327.74 608.041 328.3 607.033 328.3C605.661 328.3 604.765 327.222 604.765 325.612C604.765 323.946 605.731 322.896 607.103 322.896C608.041 322.896 608.853 323.414 609.105 324.352H610.071C609.805 322.952 608.657 322.042 607.089 322.042C605.115 322.042 603.813 323.498 603.813 325.626Z" fill="white"/>
<path d="M7.238 264V263.062H2.184L4.522 261.018C6.524 259.268 7.182 258.302 7.182 256.846C7.182 255.012 5.922 253.794 4.032 253.794C2.058 253.794 0.728 255.18 0.672 257.28H1.68C1.722 255.726 2.632 254.718 4.018 254.718C5.348 254.718 6.16 255.544 6.16 256.902C6.16 258.092 5.684 258.792 3.836 260.402L0.63 263.202V264H7.238ZM8.63133 258.988C8.63133 262.11 10.1293 264.182 12.6493 264.182C15.1553 264.182 16.6533 262.11 16.6533 258.988C16.6533 255.88 15.1273 253.78 12.6493 253.78C10.1573 253.78 8.63133 255.88 8.63133 258.988ZM9.62533 258.988C9.62533 256.37 10.7313 254.704 12.6493 254.704C14.5673 254.704 15.6733 256.37 15.6733 258.988C15.6733 261.592 14.5673 263.272 12.6493 263.272C10.7313 263.272 9.62533 261.592 9.62533 258.988Z" fill="white"/>
<path d="M7.98 222.872V221.976H6.804V214.976H5.46L0.56 221.976V222.872H5.824V225H6.804V222.872H7.98ZM1.652 221.976L5.824 216.012V221.976H1.652ZM9.54734 219.988C9.54734 223.11 11.0453 225.182 13.5653 225.182C16.0713 225.182 17.5693 223.11 17.5693 219.988C17.5693 216.88 16.0433 214.78 13.5653 214.78C11.0733 214.78 9.54734 216.88 9.54734 219.988ZM10.5413 219.988C10.5413 217.37 11.6473 215.704 13.5653 215.704C15.4833 215.704 16.5893 217.37 16.5893 219.988C16.5893 222.592 15.4833 224.272 13.5653 224.272C11.6473 224.272 10.5413 222.592 10.5413 219.988Z" fill="white"/>
<path d="M1.904 179.35C0.966 180.638 0.644 181.45 0.644 182.612C0.644 184.614 2.226 186.168 4.242 186.168C6.244 186.168 7.798 184.67 7.798 182.612C7.798 180.652 6.412 179.126 4.326 179.126C3.864 179.126 3.43 179.224 2.954 179.462L5.586 175.976H4.41L1.904 179.35ZM1.666 182.626C1.666 181.1 2.716 180.008 4.242 180.008C5.726 180.008 6.79 181.1 6.79 182.626C6.79 184.152 5.726 185.258 4.242 185.258C2.716 185.258 1.666 184.152 1.666 182.626ZM9.20555 180.988C9.20555 184.11 10.7035 186.182 13.2235 186.182C15.7295 186.182 17.2275 184.11 17.2275 180.988C17.2275 177.88 15.7015 175.78 13.2235 175.78C10.7315 175.78 9.20555 177.88 9.20555 180.988ZM10.1995 180.988C10.1995 178.37 11.3055 176.704 13.2235 176.704C15.1415 176.704 16.2475 178.37 16.2475 180.988C16.2475 183.592 15.1415 185.272 13.2235 185.272C11.3055 185.272 10.1995 183.592 10.1995 180.988Z" fill="white"/>
<path d="M0.714 144.27C0.714 145.992 2.156 147.168 4.284 147.168C6.412 147.168 7.854 145.992 7.854 144.284C7.854 143.024 7.084 142.016 5.922 141.652C6.916 141.274 7.476 140.448 7.476 139.398C7.476 137.844 6.202 136.794 4.298 136.794C2.38 136.794 1.064 137.844 1.064 139.384C1.064 140.42 1.638 141.246 2.646 141.652C1.456 142.058 0.714 143.038 0.714 144.27ZM2.016 139.412C2.016 138.362 2.912 137.69 4.284 137.69C5.642 137.69 6.524 138.362 6.524 139.44C6.524 140.546 5.642 141.26 4.284 141.26C2.912 141.26 2.016 140.518 2.016 139.412ZM1.708 144.186C1.708 142.954 2.716 142.156 4.27 142.156C5.852 142.156 6.86 142.954 6.86 144.186C6.86 145.432 5.824 146.258 4.298 146.258C2.744 146.258 1.708 145.432 1.708 144.186ZM9.34227 141.988C9.34227 145.11 10.8403 147.182 13.3603 147.182C15.8663 147.182 17.3643 145.11 17.3643 141.988C17.3643 138.88 15.8383 136.78 13.3603 136.78C10.8683 136.78 9.34227 138.88 9.34227 141.988ZM10.3363 141.988C10.3363 139.37 11.4423 137.704 13.3603 137.704C15.2783 137.704 16.3843 139.37 16.3843 141.988C16.3843 144.592 15.2783 146.272 13.3603 146.272C11.4423 146.272 10.3363 144.592 10.3363 141.988Z" fill="white"/>
<path d="M2.534 98.886V108H3.5V97.976H0.49V98.886H2.534ZM5.44578 102.988C5.44578 106.11 6.94378 108.182 9.46378 108.182C11.9698 108.182 13.4678 106.11 13.4678 102.988C13.4678 99.88 11.9418 97.78 9.46378 97.78C6.97178 97.78 5.44578 99.88 5.44578 102.988ZM6.43978 102.988C6.43978 100.37 7.54578 98.704 9.46378 98.704C11.3818 98.704 12.4878 100.37 12.4878 102.988C12.4878 105.592 11.3818 107.272 9.46378 107.272C7.54578 107.272 6.43978 105.592 6.43978 102.988ZM15.0024 102.988C15.0024 106.11 16.5004 108.182 19.0204 108.182C21.5264 108.182 23.0244 106.11 23.0244 102.988C23.0244 99.88 21.4984 97.78 19.0204 97.78C16.5284 97.78 15.0024 99.88 15.0024 102.988ZM15.9964 102.988C15.9964 100.37 17.1024 98.704 19.0204 98.704C20.9384 98.704 22.0444 100.37 22.0444 102.988C22.0444 105.592 20.9384 107.272 19.0204 107.272C17.1024 107.272 15.9964 105.592 15.9964 102.988Z" fill="white"/>
<rect x="41" y="217" width="14" height="87" rx="3" fill="#36DFAE"/>
<rect x="57" y="232" width="14" height="72" rx="3" fill="#33A1AA"/>
<rect x="90" y="200" width="14" height="104" rx="3" fill="#36DFAE"/>
<rect x="139" y="162" width="14" height="142" rx="3" fill="#36DFAE"/>
<rect x="188" y="217" width="14" height="87" rx="3" fill="#36DFAE"/>
<rect x="237" y="151" width="14" height="153" rx="3" fill="#36DFAE"/>
<rect x="286" y="124" width="14" height="180" rx="3" fill="#36DFAE"/>
<rect x="335" y="198" width="14" height="106" rx="3" fill="#36DFAE"/>
<rect x="384" y="171" width="14" height="133" rx="3" fill="#36DFAE"/>
<rect x="433" y="178" width="14" height="126" rx="3" fill="#36DFAE"/>
<rect x="482" y="198" width="14" height="106" rx="3" fill="#36DFAE"/>
<rect x="531" y="147" width="14" height="157" rx="3" fill="#36DFAE"/>
<rect x="580" y="177" width="14" height="127" rx="3" fill="#36DFAE"/>
<rect x="106" y="255" width="14" height="49" rx="3" fill="#33A1AA"/>
<rect x="155" y="190" width="14" height="114" rx="3" fill="#33A1AA"/>
<rect x="204" y="256" width="14" height="48" rx="3" fill="#33A1AA"/>
<rect x="253" y="225" width="14" height="79" rx="3" fill="#33A1AA"/>
<rect x="302" y="162" width="14" height="142" rx="3" fill="#33A1AA"/>
<rect x="351" y="217" width="14" height="87" rx="3" fill="#33A1AA"/>
<rect x="400" y="198" width="14" height="106" rx="3" fill="#33A1AA"/>
<rect x="449" y="240" width="14" height="64" rx="3" fill="#33A1AA"/>
<rect x="498" y="237" width="14" height="67" rx="3" fill="#33A1AA"/>
<rect x="547" y="200" width="14" height="104" rx="3" fill="#33A1AA"/>
<rect x="596" y="122" width="14" height="182" rx="3" fill="#33A1AA"/>
</svg>
