<svg width="627" height="347" viewBox="0 0 627 347" fill="none" xmlns="http://www.w3.org/2000/svg">
<path d="M0.374 9.514H5.082V23H7.898V9.514H12.606V6.918H0.374V9.514ZM19.872 12.088C19.432 11.978 19.058 11.934 18.684 11.934C17.232 11.934 16.198 12.66 15.736 13.738L15.582 12.154H13.052V23H15.736V17.72C15.736 15.608 16.946 14.574 18.882 14.574H19.872V12.088ZM26.1855 23.286C29.0235 23.286 31.0035 21.856 31.4655 19.48H28.9795C28.6715 20.514 27.7035 21.086 26.2295 21.086C24.4475 21.086 23.4355 20.118 23.2375 18.204L31.4215 18.182V17.368C31.4215 13.98 29.3535 11.802 26.0975 11.802C22.9075 11.802 20.6855 14.156 20.6855 17.566C20.6855 20.932 22.9515 23.286 26.1855 23.286ZM26.1195 14.002C27.7255 14.002 28.7595 14.992 28.7595 16.488H23.3035C23.5675 14.86 24.5355 14.002 26.1195 14.002ZM36.6962 23.286C38.3902 23.286 39.8642 22.516 40.3262 21.394L40.5242 23H42.8782V16.4C42.8782 13.386 41.0742 11.802 38.1482 11.802C35.2002 11.802 33.2642 13.342 33.2642 15.696H35.5522C35.5522 14.552 36.4322 13.892 38.0162 13.892C39.3802 13.892 40.2602 14.486 40.2602 15.96V16.202L37.0042 16.444C34.4302 16.642 32.9782 17.896 32.9782 19.898C32.9782 21.944 34.3862 23.286 36.6962 23.286ZM37.5762 21.262C36.3662 21.262 35.7062 20.778 35.7062 19.788C35.7062 18.908 36.3442 18.358 38.0162 18.204L40.2822 18.028V18.6C40.2822 20.272 39.2262 21.262 37.5762 21.262ZM44.6789 19.7C44.6789 21.834 46.3949 23.286 49.1009 23.286C51.7849 23.286 53.6549 21.922 53.6549 19.722C53.6549 18.05 52.7309 17.214 50.9049 16.796L48.9469 16.334C48.0229 16.114 47.5389 15.718 47.5389 15.102C47.5389 14.288 48.1549 13.804 49.2109 13.804C50.2449 13.804 50.8609 14.398 50.8829 15.322H53.4349C53.4129 13.21 51.7629 11.802 49.3209 11.802C46.8129 11.802 45.0089 13.078 45.0089 15.212C45.0089 16.95 45.9549 17.874 47.9129 18.314L49.8709 18.776C50.8389 18.996 51.1249 19.392 51.1249 19.942C51.1249 20.734 50.4429 21.24 49.1889 21.24C47.9569 21.24 47.2529 20.646 47.2309 19.7H44.6789ZM63.0685 12.132V17.83C63.0685 19.898 62.2545 20.888 60.5605 20.888C59.0645 20.888 58.2505 20.052 58.2505 17.984V12.132H55.5665V18.93C55.5665 21.592 57.0405 23.286 59.5485 23.286C61.0005 23.286 62.4085 22.582 63.0685 21.548L63.2665 23H65.7525V12.132H63.0685ZM75.3447 12.088C74.9047 11.978 74.5307 11.934 74.1567 11.934C72.7047 11.934 71.6707 12.66 71.2087 13.738L71.0547 12.154H68.5247V23H71.2087V17.72C71.2087 15.608 72.4187 14.574 74.3547 14.574H75.3447V12.088ZM76.5377 28.038C77.1317 28.192 77.7917 28.28 78.5397 28.28C80.3217 28.28 81.4657 27.444 82.2797 25.42L87.6037 12.132H84.8317L81.8837 20.052L79.0897 12.132H76.2517L80.6297 23.462L80.3217 24.276C79.8597 25.552 79.1997 25.794 78.1437 25.794H76.5377V28.038Z" fill="white"/>
<path d="M0.77 288.988C0.77 292.11 2.268 294.182 4.788 294.182C7.294 294.182 8.792 292.11 8.792 288.988C8.792 285.88 7.266 283.78 4.788 283.78C2.296 283.78 0.77 285.88 0.77 288.988ZM1.764 288.988C1.764 286.37 2.87 284.704 4.788 284.704C6.706 284.704 7.812 286.37 7.812 288.988C7.812 291.592 6.706 293.272 4.788 293.272C2.87 293.272 1.764 291.592 1.764 288.988Z" fill="white"/>
<path d="M47.212 343V338.086C47.212 336.56 47.184 335.454 47.128 335.076L50.39 343H51.356L54.618 335.034C54.562 335.72 54.534 336.49 54.534 338.24V343H55.528V332.976H54.52L50.866 341.81L47.212 332.976H46.218V343H47.212ZM57.2761 339.612C57.2761 341.67 58.7321 343.168 60.7201 343.168C62.7081 343.168 64.1641 341.67 64.1641 339.612C64.1641 337.54 62.7081 336.042 60.7201 336.042C58.7321 336.042 57.2761 337.54 57.2761 339.612ZM58.2561 339.598C58.2561 338.03 59.2641 336.91 60.7201 336.91C62.1621 336.91 63.1841 338.03 63.1841 339.598C63.1841 341.194 62.1621 342.3 60.7201 342.3C59.2641 342.3 58.2561 341.194 58.2561 339.598ZM66.6752 343V339.458C66.6752 337.932 67.4592 336.924 68.8452 336.924C69.9652 336.924 70.6792 337.484 70.6792 339.066V343H71.6452V338.856C71.6452 337.148 70.8752 336.042 69.0132 336.042C68.0332 336.042 67.1372 336.532 66.6892 337.4L66.5492 336.224H65.7092V343H66.6752Z" fill="white"/>
<path d="M136.168 333.9H139.248V343H140.256V333.9H143.35V332.976H136.168V333.9ZM148.454 336.224V339.822C148.454 341.432 147.684 342.3 146.382 342.3C145.304 342.3 144.59 341.726 144.59 340.116V336.21H143.61V340.424C143.61 342.076 144.478 343.168 146.074 343.168C147.138 343.168 148.076 342.636 148.454 341.852L148.58 343H149.42V336.224H148.454ZM154.137 343.168C155.733 343.168 156.783 342.398 157.147 340.97H156.223C155.971 341.866 155.257 342.342 154.151 342.342C152.695 342.342 151.827 341.39 151.757 339.738H157.147V339.262C157.147 337.344 155.901 336.042 154.067 336.042C152.135 336.042 150.819 337.498 150.819 339.612C150.819 341.74 152.149 343.168 154.137 343.168ZM154.067 336.868C155.341 336.868 156.181 337.736 156.181 339.038H151.785C151.953 337.708 152.793 336.868 154.067 336.868Z" fill="white"/>
<path d="M229.192 343H230.158L232.846 334.488L235.534 343H236.486L239.496 332.976H238.474L236.402 339.878C236.29 340.256 236.164 340.746 236.01 341.516C235.856 340.872 235.716 340.368 235.562 339.864L233.378 332.976H232.328L230.144 339.864C229.99 340.354 229.85 340.788 229.682 341.516C229.556 340.858 229.43 340.354 229.29 339.864L227.26 332.976H226.21L229.192 343ZM242.77 343.168C244.366 343.168 245.416 342.398 245.78 340.97H244.856C244.604 341.866 243.89 342.342 242.784 342.342C241.328 342.342 240.46 341.39 240.39 339.738H245.78V339.262C245.78 337.344 244.534 336.042 242.7 336.042C240.768 336.042 239.452 337.498 239.452 339.612C239.452 341.74 240.782 343.168 242.77 343.168ZM242.7 336.868C243.974 336.868 244.814 337.736 244.814 339.038H240.418C240.586 337.708 241.426 336.868 242.7 336.868ZM249.984 343.168C251.118 343.168 252.07 342.664 252.546 341.614L252.644 343H253.484V332.794H252.518V337.512C252.042 336.532 251.146 336.042 250.026 336.042C248.01 336.042 246.848 337.582 246.848 339.626C246.848 341.656 248.01 343.168 249.984 343.168ZM250.152 342.286C248.682 342.286 247.828 341.166 247.828 339.598C247.828 338.044 248.682 336.91 250.152 336.91C251.636 336.91 252.504 338.044 252.504 339.598C252.504 341.166 251.636 342.286 250.152 342.286Z" fill="white"/>
<path d="M317.168 333.9H320.248V343H321.256V333.9H324.35V332.976H317.168V333.9ZM326.494 342.986V339.304C326.494 338.002 327.25 336.924 328.706 336.924C329.756 336.924 330.498 337.484 330.498 339.066V343H331.464V338.856C331.464 337.148 330.666 336.042 328.888 336.042C327.754 336.042 326.928 336.588 326.494 337.4V332.794H325.528V342.986H326.494ZM338.149 336.224V339.822C338.149 341.432 337.379 342.3 336.077 342.3C334.999 342.3 334.285 341.726 334.285 340.116V336.21H333.305V340.424C333.305 342.076 334.173 343.168 335.769 343.168C336.833 343.168 337.771 342.636 338.149 341.852L338.275 343H339.115V336.224H338.149Z" fill="white"/>
<path d="M413.328 338.59V337.68H409.226V333.9H414.126V332.976H408.218V343H409.226V338.59H413.328ZM418.728 336.14C418.49 336.084 418.308 336.07 418.098 336.07C417.146 336.07 416.432 336.546 416.166 337.274L416.096 336.224H415.186V343H416.152V339.136C416.152 337.848 416.95 337.008 418.196 337.008H418.728V336.14ZM420.488 334.362C420.88 334.362 421.216 334.04 421.216 333.648C421.216 333.256 420.88 332.92 420.488 332.92C420.096 332.92 419.774 333.256 419.774 333.648C419.774 334.04 420.096 334.362 420.488 334.362ZM420.012 343H420.978V336.224H420.012V343Z" fill="white"/>
<path d="M498.616 335.58C498.616 336.952 499.442 337.848 501.01 338.226L502.704 338.646C503.782 338.898 504.286 339.486 504.286 340.382C504.286 341.53 503.348 342.244 501.878 342.244C500.506 342.244 499.582 341.558 499.526 340.508H498.49C498.616 342.146 499.932 343.168 501.878 343.168C503.95 343.168 505.294 342.062 505.294 340.326C505.294 338.968 504.482 338.072 502.914 337.694L501.192 337.274C500.142 337.008 499.624 336.448 499.624 335.566C499.624 334.432 500.548 333.704 501.962 333.704C503.222 333.704 503.992 334.348 504.104 335.482H505.126C504.972 333.802 503.782 332.794 501.976 332.794C499.96 332.794 498.616 333.9 498.616 335.58ZM508.843 343.168C509.991 343.168 510.915 342.664 511.335 341.81L511.461 343H512.273V338.618C512.273 336.826 511.125 336.042 509.557 336.042C507.891 336.042 506.771 336.924 506.771 338.296H507.653C507.653 337.386 508.353 336.854 509.529 336.854C510.523 336.854 511.321 337.274 511.321 338.604V338.828L509.081 339.01C507.499 339.136 506.547 339.92 506.547 341.166C506.547 342.356 507.401 343.168 508.843 343.168ZM509.067 342.384C508.143 342.384 507.527 341.964 507.527 341.138C507.527 340.382 508.045 339.822 509.319 339.71L511.321 339.556V339.92C511.321 341.39 510.495 342.384 509.067 342.384ZM515.642 343V337.036H517V336.224H515.642V334.082H514.69V336.224H513.332V337.036H514.69V343H515.642Z" fill="white"/>
<path d="M588.616 335.58C588.616 336.952 589.442 337.848 591.01 338.226L592.704 338.646C593.782 338.898 594.286 339.486 594.286 340.382C594.286 341.53 593.348 342.244 591.878 342.244C590.506 342.244 589.582 341.558 589.526 340.508H588.49C588.616 342.146 589.932 343.168 591.878 343.168C593.95 343.168 595.294 342.062 595.294 340.326C595.294 338.968 594.482 338.072 592.914 337.694L591.192 337.274C590.142 337.008 589.624 336.448 589.624 335.566C589.624 334.432 590.548 333.704 591.962 333.704C593.222 333.704 593.992 334.348 594.104 335.482H595.126C594.972 333.802 593.782 332.794 591.976 332.794C589.96 332.794 588.616 333.9 588.616 335.58ZM601.657 336.224V339.822C601.657 341.432 600.887 342.3 599.585 342.3C598.507 342.3 597.793 341.726 597.793 340.116V336.21H596.813V340.424C596.813 342.076 597.681 343.168 599.277 343.168C600.341 343.168 601.279 342.636 601.657 341.852L601.783 343H602.623V336.224H601.657ZM605.601 343V339.458C605.601 337.932 606.385 336.924 607.771 336.924C608.891 336.924 609.605 337.484 609.605 339.066V343H610.571V338.856C610.571 337.148 609.801 336.042 607.939 336.042C606.959 336.042 606.063 336.532 605.615 337.4L605.475 336.224H604.635V343H605.601Z" fill="white"/>
<path d="M7.238 255V254.062H2.184L4.522 252.018C6.524 250.268 7.182 249.302 7.182 247.846C7.182 246.012 5.922 244.794 4.032 244.794C2.058 244.794 0.728 246.18 0.672 248.28H1.68C1.722 246.726 2.632 245.718 4.018 245.718C5.348 245.718 6.16 246.544 6.16 247.902C6.16 249.092 5.684 249.792 3.836 251.402L0.63 254.202V255H7.238ZM8.63133 249.988C8.63133 253.11 10.1293 255.182 12.6493 255.182C15.1553 255.182 16.6533 253.11 16.6533 249.988C16.6533 246.88 15.1273 244.78 12.6493 244.78C10.1573 244.78 8.63133 246.88 8.63133 249.988ZM9.62533 249.988C9.62533 247.37 10.7313 245.704 12.6493 245.704C14.5673 245.704 15.6733 247.37 15.6733 249.988C15.6733 252.592 14.5673 254.272 12.6493 254.272C10.7313 254.272 9.62533 252.592 9.62533 249.988Z" fill="white"/>
<path d="M7.98 213.872V212.976H6.804V205.976H5.46L0.56 212.976V213.872H5.824V216H6.804V213.872H7.98ZM1.652 212.976L5.824 207.012V212.976H1.652ZM9.54734 210.988C9.54734 214.11 11.0453 216.182 13.5653 216.182C16.0713 216.182 17.5693 214.11 17.5693 210.988C17.5693 207.88 16.0433 205.78 13.5653 205.78C11.0733 205.78 9.54734 207.88 9.54734 210.988ZM10.5413 210.988C10.5413 208.37 11.6473 206.704 13.5653 206.704C15.4833 206.704 16.5893 208.37 16.5893 210.988C16.5893 213.592 15.4833 215.272 13.5653 215.272C11.6473 215.272 10.5413 213.592 10.5413 210.988Z" fill="white"/>
<path d="M1.904 170.35C0.966 171.638 0.644 172.45 0.644 173.612C0.644 175.614 2.226 177.168 4.242 177.168C6.244 177.168 7.798 175.67 7.798 173.612C7.798 171.652 6.412 170.126 4.326 170.126C3.864 170.126 3.43 170.224 2.954 170.462L5.586 166.976H4.41L1.904 170.35ZM1.666 173.626C1.666 172.1 2.716 171.008 4.242 171.008C5.726 171.008 6.79 172.1 6.79 173.626C6.79 175.152 5.726 176.258 4.242 176.258C2.716 176.258 1.666 175.152 1.666 173.626ZM9.20555 171.988C9.20555 175.11 10.7035 177.182 13.2235 177.182C15.7295 177.182 17.2275 175.11 17.2275 171.988C17.2275 168.88 15.7015 166.78 13.2235 166.78C10.7315 166.78 9.20555 168.88 9.20555 171.988ZM10.1995 171.988C10.1995 169.37 11.3055 167.704 13.2235 167.704C15.1415 167.704 16.2475 169.37 16.2475 171.988C16.2475 174.592 15.1415 176.272 13.2235 176.272C11.3055 176.272 10.1995 174.592 10.1995 171.988Z" fill="white"/>
<path d="M0.714 135.27C0.714 136.992 2.156 138.168 4.284 138.168C6.412 138.168 7.854 136.992 7.854 135.284C7.854 134.024 7.084 133.016 5.922 132.652C6.916 132.274 7.476 131.448 7.476 130.398C7.476 128.844 6.202 127.794 4.298 127.794C2.38 127.794 1.064 128.844 1.064 130.384C1.064 131.42 1.638 132.246 2.646 132.652C1.456 133.058 0.714 134.038 0.714 135.27ZM2.016 130.412C2.016 129.362 2.912 128.69 4.284 128.69C5.642 128.69 6.524 129.362 6.524 130.44C6.524 131.546 5.642 132.26 4.284 132.26C2.912 132.26 2.016 131.518 2.016 130.412ZM1.708 135.186C1.708 133.954 2.716 133.156 4.27 133.156C5.852 133.156 6.86 133.954 6.86 135.186C6.86 136.432 5.824 137.258 4.298 137.258C2.744 137.258 1.708 136.432 1.708 135.186ZM9.34227 132.988C9.34227 136.11 10.8403 138.182 13.3603 138.182C15.8663 138.182 17.3643 136.11 17.3643 132.988C17.3643 129.88 15.8383 127.78 13.3603 127.78C10.8683 127.78 9.34227 129.88 9.34227 132.988ZM10.3363 132.988C10.3363 130.37 11.4423 128.704 13.3603 128.704C15.2783 128.704 16.3843 130.37 16.3843 132.988C16.3843 135.592 15.2783 137.272 13.3603 137.272C11.4423 137.272 10.3363 135.592 10.3363 132.988Z" fill="white"/>
<path d="M2.534 89.886V99H3.5V88.976H0.49V89.886H2.534ZM5.44578 93.988C5.44578 97.11 6.94378 99.182 9.46378 99.182C11.9698 99.182 13.4678 97.11 13.4678 93.988C13.4678 90.88 11.9418 88.78 9.46378 88.78C6.97178 88.78 5.44578 90.88 5.44578 93.988ZM6.43978 93.988C6.43978 91.37 7.54578 89.704 9.46378 89.704C11.3818 89.704 12.4878 91.37 12.4878 93.988C12.4878 96.592 11.3818 98.272 9.46378 98.272C7.54578 98.272 6.43978 96.592 6.43978 93.988ZM15.0024 93.988C15.0024 97.11 16.5004 99.182 19.0204 99.182C21.5264 99.182 23.0244 97.11 23.0244 93.988C23.0244 90.88 21.4984 88.78 19.0204 88.78C16.5284 88.78 15.0024 90.88 15.0024 93.988ZM15.9964 93.988C15.9964 91.37 17.1024 89.704 19.0204 89.704C20.9384 89.704 22.0444 91.37 22.0444 93.988C22.0444 96.592 20.9384 98.272 19.0204 98.272C17.1024 98.272 15.9964 96.592 15.9964 93.988Z" fill="white"/>
<path d="M45 288.96C53.1944 280.119 79.4164 267.742 118.749 288.96C167.916 315.482 240.371 302.221 286.303 242.988C332.235 183.755 332.882 149.276 383.989 146.624C435.096 143.972 472.617 245.64 517.902 220.002C563.187 194.364 558.658 108.609 613 98" stroke="#FBB0B3" stroke-width="3"/>
<path d="M44 290C50.7003 283.158 70.0254 268.734 93.7234 265.773C123.346 262.072 134.278 277.214 158.963 276.204C192.817 274.82 209.392 268.465 228.435 228.087C235.735 212.609 239.128 186.273 268.203 179.871C292.645 174.488 310.134 192.771 322.477 210.604C334.82 228.438 366.337 245.062 394.196 234.295C428.203 221.151 429.444 204.197 450.25 166.51C471.057 128.824 512.669 120.412 541.586 123.44C570.503 126.469 593.426 132.526 610 112" stroke="#36DFAE" stroke-width="3"/>
<path d="M279.148 17.514C279.148 19.796 280.548 21.168 282.872 21.168C285.154 21.168 286.554 19.782 286.554 17.514V10.976H285.546V17.472C285.546 19.208 284.58 20.188 282.872 20.188C281.122 20.188 280.156 19.236 280.156 17.472V10.976H279.148V17.514ZM288.323 13.58C288.323 14.952 289.149 15.848 290.717 16.226L292.411 16.646C293.489 16.898 293.993 17.486 293.993 18.382C293.993 19.53 293.055 20.244 291.585 20.244C290.213 20.244 289.289 19.558 289.233 18.508H288.197C288.323 20.146 289.639 21.168 291.585 21.168C293.657 21.168 295.001 20.062 295.001 18.326C295.001 16.968 294.189 16.072 292.621 15.694L290.899 15.274C289.849 15.008 289.331 14.448 289.331 13.566C289.331 12.432 290.255 11.704 291.669 11.704C292.929 11.704 293.699 12.348 293.811 13.482H294.833C294.679 11.802 293.489 10.794 291.683 10.794C289.667 10.794 288.323 11.9 288.323 13.58ZM299.866 21C302.876 21 304.878 18.984 304.878 15.988C304.878 12.992 302.862 10.976 299.838 10.976H296.814V21H299.866ZM299.796 11.9C302.274 11.9 303.842 13.482 303.842 15.988C303.842 18.48 302.274 20.076 299.824 20.076H297.822V11.9H299.796ZM310.786 21.154C312.942 21.154 314.692 19.88 315.154 17.99H314.076C313.642 19.334 312.382 20.188 310.8 20.188C308.602 20.188 307.132 18.508 307.132 15.988C307.132 13.454 308.602 11.774 310.8 11.774C312.368 11.774 313.6 12.656 314.02 14.098H315.098C314.692 12.11 312.998 10.808 310.842 10.808C308.014 10.808 306.082 12.908 306.082 15.988C306.082 19.068 307.986 21.154 310.786 21.154Z" fill="white"/>
<circle cx="260.5" cy="16.5" r="7.5" fill="#36DFAE"/>
<path d="M388.224 21V20.076H383.226V16.422H387.748V15.512H383.226V11.9H388.21V10.976H382.218V21H388.224ZM389.221 11.9H392.301V21H393.309V11.9H396.403V10.976H389.221V11.9ZM398.798 21V16.38H404.216V21H405.21V10.976H404.216V15.442H398.798V10.976H397.79V21H398.798Z" fill="white"/>
<circle cx="363.5" cy="16.5" r="7.5" fill="#FBB0B3"/>
<rect x="531" width="86" height="30" rx="10" fill="white"/>
<path d="M549.262 21H551.026L553.252 13.552L555.436 21H557.172L560.28 10.766H558.46L556.808 16.184C556.654 16.702 556.514 17.248 556.318 18.2C556.15 17.332 555.996 16.744 555.828 16.17L554.246 10.766H552.272L550.662 16.17C550.48 16.758 550.326 17.29 550.158 18.2C550.004 17.304 549.85 16.73 549.696 16.17L548.072 10.766H546.21L549.262 21ZM563.47 21.182C565.276 21.182 566.536 20.272 566.83 18.76H565.248C565.052 19.418 564.436 19.782 563.498 19.782C562.364 19.782 561.72 19.166 561.594 17.948L566.802 17.934V17.416C566.802 15.26 565.486 13.874 563.414 13.874C561.384 13.874 559.97 15.372 559.97 17.542C559.97 19.684 561.412 21.182 563.47 21.182ZM563.428 15.274C564.45 15.274 565.108 15.904 565.108 16.856H561.636C561.804 15.82 562.42 15.274 563.428 15.274ZM571.263 21.182C573.069 21.182 574.329 20.272 574.623 18.76H573.041C572.845 19.418 572.229 19.782 571.291 19.782C570.157 19.782 569.513 19.166 569.387 17.948L574.595 17.934V17.416C574.595 15.26 573.279 13.874 571.207 13.874C569.177 13.874 567.763 15.372 567.763 17.542C567.763 19.684 569.205 21.182 571.263 21.182ZM571.221 15.274C572.243 15.274 572.901 15.904 572.901 16.856H569.429C569.597 15.82 570.213 15.274 571.221 15.274ZM577.684 21V19.138L578.692 18.088L580.498 21H582.458L579.882 16.828L582.514 14.084H580.372L577.684 16.982V10.584H575.99V21H577.684Z" fill="#1D555C"/>
<path d="M593 13L598.001 18L603 13" stroke="#36DFAE" stroke-width="2" stroke-linejoin="round"/>
</svg>
