<svg width="265" height="333" viewBox="0 0 265 333" fill="none" xmlns="http://www.w3.org/2000/svg">
<path d="M5.126 19H7.898L11.396 7.296L14.828 19H17.556L22.44 2.918H19.58L16.984 11.432C16.742 12.246 16.522 13.104 16.214 14.6C15.95 13.236 15.708 12.312 15.444 11.41L12.958 2.918H9.856L7.326 11.41C7.04 12.334 6.798 13.17 6.534 14.6C6.292 13.192 6.05 12.29 5.808 11.41L3.256 2.918H0.33L5.126 19ZM27.4531 19.286C30.2911 19.286 32.2711 17.856 32.7331 15.48H30.2471C29.9391 16.514 28.9711 17.086 27.4971 17.086C25.7151 17.086 24.7031 16.118 24.5051 14.204L32.6891 14.182V13.368C32.6891 9.98 30.6211 7.802 27.3651 7.802C24.1751 7.802 21.9531 10.156 21.9531 13.566C21.9531 16.932 24.2191 19.286 27.4531 19.286ZM27.3871 10.002C28.9931 10.002 30.0271 10.992 30.0271 12.488H24.5711C24.8351 10.86 25.8031 10.002 27.3871 10.002ZM39.6992 19.286C42.5372 19.286 44.5172 17.856 44.9792 15.48H42.4932C42.1852 16.514 41.2172 17.086 39.7432 17.086C37.9612 17.086 36.9492 16.118 36.7512 14.204L44.9352 14.182V13.368C44.9352 9.98 42.8672 7.802 39.6112 7.802C36.4212 7.802 34.1992 10.156 34.1992 13.566C34.1992 16.932 36.4652 19.286 39.6992 19.286ZM39.6332 10.002C41.2392 10.002 42.2732 10.992 42.2732 12.488H36.8172C37.0812 10.86 38.0492 10.002 39.6332 10.002ZM49.7893 19V16.074L51.3733 14.424L54.2113 19H57.2913L53.2433 12.444L57.3793 8.132H54.0133L49.7893 12.686V2.632H47.1273V19H49.7893ZM61.6272 19V2.632H58.9652V19H61.6272ZM63.4966 24.038C64.0906 24.192 64.7506 24.28 65.4986 24.28C67.2806 24.28 68.4246 23.444 69.2386 21.42L74.5626 8.132H71.7906L68.8426 16.052L66.0486 8.132H63.2106L67.5886 19.462L67.2806 20.276C66.8186 21.552 66.1586 21.794 65.1026 21.794H63.4966V24.038ZM88.7709 13.456C91.9829 13.456 94.0949 11.278 94.0949 8.176C94.0949 5.03 92.0049 2.918 88.7709 2.918H82.4129V19H85.2289V13.456H88.7709ZM88.2209 5.426C90.0909 5.426 91.1469 6.394 91.1469 8.154C91.1469 9.914 90.1129 10.948 88.1769 10.948H85.2289V5.426H88.2209ZM103.438 8.132V13.83C103.438 15.898 102.624 16.888 100.93 16.888C99.4336 16.888 98.6196 16.052 98.6196 13.984V8.132H95.9356V14.93C95.9356 17.592 97.4096 19.286 99.9176 19.286C101.37 19.286 102.778 18.582 103.438 17.548L103.636 19H106.122V8.132H103.438ZM115.714 8.088C115.274 7.978 114.9 7.934 114.526 7.934C113.074 7.934 112.04 8.66 111.578 9.738L111.424 8.154H108.894V19H111.578V13.72C111.578 11.608 112.788 10.574 114.724 10.574H115.714V8.088ZM116.527 13.544C116.527 16.998 118.683 19.286 121.983 19.286C124.821 19.286 126.933 17.548 127.263 15.018H124.557C124.271 16.206 123.325 16.866 121.983 16.866C120.267 16.866 119.211 15.59 119.211 13.544C119.211 11.498 120.355 10.2 122.071 10.2C123.347 10.2 124.249 10.838 124.557 12.07H127.241C126.955 9.452 124.931 7.802 121.961 7.802C118.749 7.802 116.527 10.178 116.527 13.544ZM131.945 19V13.06C131.945 11.432 132.935 10.244 134.629 10.244C135.993 10.244 136.895 11.124 136.895 12.95V19H139.579V12.312C139.579 9.496 138.171 7.802 135.487 7.802C133.925 7.802 132.649 8.484 131.967 9.54V2.632H129.261V19H131.945ZM145.45 19.286C147.144 19.286 148.618 18.516 149.08 17.394L149.278 19H151.632V12.4C151.632 9.386 149.828 7.802 146.902 7.802C143.954 7.802 142.018 9.342 142.018 11.696H144.306C144.306 10.552 145.186 9.892 146.77 9.892C148.134 9.892 149.014 10.486 149.014 11.96V12.202L145.758 12.444C143.184 12.642 141.732 13.896 141.732 15.898C141.732 17.944 143.14 19.286 145.45 19.286ZM146.33 17.262C145.12 17.262 144.46 16.778 144.46 15.788C144.46 14.908 145.098 14.358 146.77 14.204L149.036 14.028V14.6C149.036 16.272 147.98 17.262 146.33 17.262ZM153.433 15.7C153.433 17.834 155.149 19.286 157.855 19.286C160.539 19.286 162.409 17.922 162.409 15.722C162.409 14.05 161.485 13.214 159.659 12.796L157.701 12.334C156.777 12.114 156.293 11.718 156.293 11.102C156.293 10.288 156.909 9.804 157.965 9.804C158.999 9.804 159.615 10.398 159.637 11.322H162.189C162.167 9.21 160.517 7.802 158.075 7.802C155.567 7.802 153.763 9.078 153.763 11.212C153.763 12.95 154.709 13.874 156.667 14.314L158.625 14.776C159.593 14.996 159.879 15.392 159.879 15.942C159.879 16.734 159.197 17.24 157.943 17.24C156.711 17.24 156.007 16.646 155.985 15.7H153.433ZM169.314 19.286C172.152 19.286 174.132 17.856 174.594 15.48H172.108C171.8 16.514 170.832 17.086 169.358 17.086C167.576 17.086 166.564 16.118 166.366 14.204L174.55 14.182V13.368C174.55 9.98 172.482 7.802 169.226 7.802C166.036 7.802 163.814 10.156 163.814 13.566C163.814 16.932 166.08 19.286 169.314 19.286ZM169.248 10.002C170.854 10.002 171.888 10.992 171.888 12.488H166.432C166.696 10.86 167.664 10.002 169.248 10.002ZM175.863 15.7C175.863 17.834 177.579 19.286 180.285 19.286C182.969 19.286 184.839 17.922 184.839 15.722C184.839 14.05 183.915 13.214 182.089 12.796L180.131 12.334C179.207 12.114 178.723 11.718 178.723 11.102C178.723 10.288 179.339 9.804 180.395 9.804C181.429 9.804 182.045 10.398 182.067 11.322H184.619C184.597 9.21 182.947 7.802 180.505 7.802C177.997 7.802 176.193 9.078 176.193 11.212C176.193 12.95 177.139 13.874 179.097 14.314L181.055 14.776C182.023 14.996 182.309 15.392 182.309 15.942C182.309 16.734 181.627 17.24 180.373 17.24C179.141 17.24 178.437 16.646 178.415 15.7H175.863Z" fill="white"/>
<path d="M2.212 67V62.086C2.212 60.56 2.184 59.454 2.128 59.076L5.39 67H6.356L9.618 59.034C9.562 59.72 9.534 60.49 9.534 62.24V67H10.528V56.976H9.52L5.866 65.81L2.212 56.976H1.218V67H2.212ZM12.2761 63.612C12.2761 65.67 13.7321 67.168 15.7201 67.168C17.7081 67.168 19.1641 65.67 19.1641 63.612C19.1641 61.54 17.7081 60.042 15.7201 60.042C13.7321 60.042 12.2761 61.54 12.2761 63.612ZM13.2561 63.598C13.2561 62.03 14.2641 60.91 15.7201 60.91C17.1621 60.91 18.1841 62.03 18.1841 63.598C18.1841 65.194 17.1621 66.3 15.7201 66.3C14.2641 66.3 13.2561 65.194 13.2561 63.598ZM21.6752 67V63.458C21.6752 61.932 22.4592 60.924 23.8452 60.924C24.9652 60.924 25.6792 61.484 25.6792 63.066V67H26.6452V62.856C26.6452 61.148 25.8752 60.042 24.0132 60.042C23.0332 60.042 22.1372 60.532 21.6892 61.4L21.5492 60.224H20.7092V67H21.6752Z" fill="white"/>
<path d="M0.168 92.9H3.248V102H4.256V92.9H7.35V91.976H0.168V92.9ZM12.4535 95.224V98.822C12.4535 100.432 11.6835 101.3 10.3815 101.3C9.30355 101.3 8.58955 100.726 8.58955 99.116V95.21H7.60955V99.424C7.60955 101.076 8.47755 102.168 10.0735 102.168C11.1375 102.168 12.0755 101.636 12.4535 100.852L12.5795 102H13.4195V95.224H12.4535ZM18.1371 102.168C19.7331 102.168 20.7831 101.398 21.1471 99.97H20.2231C19.9711 100.866 19.2571 101.342 18.1511 101.342C16.6951 101.342 15.8271 100.39 15.7571 98.738H21.1471V98.262C21.1471 96.344 19.9011 95.042 18.0671 95.042C16.1351 95.042 14.8191 96.498 14.8191 98.612C14.8191 100.74 16.1491 102.168 18.1371 102.168ZM18.0671 95.868C19.3411 95.868 20.1811 96.736 20.1811 98.038H15.7851C15.9531 96.708 16.7931 95.868 18.0671 95.868Z" fill="white"/>
<path d="M3.192 137H4.158L6.846 128.488L9.534 137H10.486L13.496 126.976H12.474L10.402 133.878C10.29 134.256 10.164 134.746 10.01 135.516C9.856 134.872 9.716 134.368 9.562 133.864L7.378 126.976H6.328L4.144 133.864C3.99 134.354 3.85 134.788 3.682 135.516C3.556 134.858 3.43 134.354 3.29 133.864L1.26 126.976H0.21L3.192 137ZM16.7699 137.168C18.3659 137.168 19.4159 136.398 19.7799 134.97H18.8559C18.6039 135.866 17.8899 136.342 16.7839 136.342C15.3279 136.342 14.4599 135.39 14.3899 133.738H19.7799V133.262C19.7799 131.344 18.5339 130.042 16.6999 130.042C14.7679 130.042 13.4519 131.498 13.4519 133.612C13.4519 135.74 14.7819 137.168 16.7699 137.168ZM16.6999 130.868C17.9739 130.868 18.8139 131.736 18.8139 133.038H14.4179C14.5859 131.708 15.4259 130.868 16.6999 130.868ZM23.9844 137.168C25.1184 137.168 26.0704 136.664 26.5464 135.614L26.6444 137H27.4844V126.794H26.5184V131.512C26.0424 130.532 25.1464 130.042 24.0264 130.042C22.0104 130.042 20.8484 131.582 20.8484 133.626C20.8484 135.656 22.0104 137.168 23.9844 137.168ZM24.1524 136.286C22.6824 136.286 21.8284 135.166 21.8284 133.598C21.8284 132.044 22.6824 130.91 24.1524 130.91C25.6364 130.91 26.5044 132.044 26.5044 133.598C26.5044 135.166 25.6364 136.286 24.1524 136.286Z" fill="white"/>
<path d="M0.168 164.9H3.248V174H4.256V164.9H7.35V163.976H0.168V164.9ZM9.49353 173.986V170.304C9.49353 169.002 10.2495 167.924 11.7055 167.924C12.7555 167.924 13.4975 168.484 13.4975 170.066V174H14.4635V169.856C14.4635 168.148 13.6655 167.042 11.8875 167.042C10.7535 167.042 9.92753 167.588 9.49353 168.4V163.794H8.52753V173.986H9.49353ZM21.1489 167.224V170.822C21.1489 172.432 20.3789 173.3 19.0769 173.3C17.9989 173.3 17.2849 172.726 17.2849 171.116V167.21H16.3049V171.424C16.3049 173.076 17.1729 174.168 18.7689 174.168C19.8329 174.168 20.7709 173.636 21.1489 172.852L21.2749 174H22.1149V167.224H21.1489Z" fill="white"/>
<path d="M6.328 208.59V207.68H2.226V203.9H7.126V202.976H1.218V213H2.226V208.59H6.328ZM11.7277 206.14C11.4897 206.084 11.3077 206.07 11.0977 206.07C10.1457 206.07 9.43173 206.546 9.16573 207.274L9.09573 206.224H8.18573V213H9.15173V209.136C9.15173 207.848 9.94973 207.008 11.1957 207.008H11.7277V206.14ZM13.4879 204.362C13.8799 204.362 14.2159 204.04 14.2159 203.648C14.2159 203.256 13.8799 202.92 13.4879 202.92C13.0959 202.92 12.7739 203.256 12.7739 203.648C12.7739 204.04 13.0959 204.362 13.4879 204.362ZM13.0119 213H13.9779V206.224H13.0119V213Z" fill="white"/>
<path d="M0.616 244.58C0.616 245.952 1.442 246.848 3.01 247.226L4.704 247.646C5.782 247.898 6.286 248.486 6.286 249.382C6.286 250.53 5.348 251.244 3.878 251.244C2.506 251.244 1.582 250.558 1.526 249.508H0.49C0.616 251.146 1.932 252.168 3.878 252.168C5.95 252.168 7.294 251.062 7.294 249.326C7.294 247.968 6.482 247.072 4.914 246.694L3.192 246.274C2.142 246.008 1.624 245.448 1.624 244.566C1.624 243.432 2.548 242.704 3.962 242.704C5.222 242.704 5.992 243.348 6.104 244.482H7.126C6.972 242.802 5.782 241.794 3.976 241.794C1.96 241.794 0.616 242.9 0.616 244.58ZM10.8427 252.168C11.9907 252.168 12.9147 251.664 13.3347 250.81L13.4607 252H14.2727V247.618C14.2727 245.826 13.1247 245.042 11.5567 245.042C9.89067 245.042 8.77067 245.924 8.77067 247.296H9.65267C9.65267 246.386 10.3527 245.854 11.5287 245.854C12.5227 245.854 13.3207 246.274 13.3207 247.604V247.828L11.0807 248.01C9.49867 248.136 8.54667 248.92 8.54667 250.166C8.54667 251.356 9.40067 252.168 10.8427 252.168ZM11.0667 251.384C10.1427 251.384 9.52667 250.964 9.52667 250.138C9.52667 249.382 10.0447 248.822 11.3187 248.71L13.3207 248.556V248.92C13.3207 250.39 12.4947 251.384 11.0667 251.384ZM17.6421 252V246.036H19.0001V245.224H17.6421V243.082H16.6901V245.224H15.3321V246.036H16.6901V252H17.6421Z" fill="white"/>
<path d="M0.616 283.58C0.616 284.952 1.442 285.848 3.01 286.226L4.704 286.646C5.782 286.898 6.286 287.486 6.286 288.382C6.286 289.53 5.348 290.244 3.878 290.244C2.506 290.244 1.582 289.558 1.526 288.508H0.49C0.616 290.146 1.932 291.168 3.878 291.168C5.95 291.168 7.294 290.062 7.294 288.326C7.294 286.968 6.482 286.072 4.914 285.694L3.192 285.274C2.142 285.008 1.624 284.448 1.624 283.566C1.624 282.432 2.548 281.704 3.962 281.704C5.222 281.704 5.992 282.348 6.104 283.482H7.126C6.972 281.802 5.782 280.794 3.976 280.794C1.96 280.794 0.616 281.9 0.616 283.58ZM13.6567 284.224V287.822C13.6567 289.432 12.8867 290.3 11.5847 290.3C10.5067 290.3 9.79267 289.726 9.79267 288.116V284.21H8.81267V288.424C8.81267 290.076 9.68067 291.168 11.2767 291.168C12.3407 291.168 13.2787 290.636 13.6567 289.852L13.7827 291H14.6227V284.224H13.6567ZM17.601 291V287.458C17.601 285.932 18.385 284.924 19.771 284.924C20.891 284.924 21.605 285.484 21.605 287.066V291H22.571V286.856C22.571 285.148 21.801 284.042 19.939 284.042C18.959 284.042 18.063 284.532 17.615 285.4L17.475 284.224H16.635V291H17.601Z" fill="white"/>
<path d="M55.534 319.886V329H56.5V318.976H53.49V319.886H55.534ZM58.4458 323.988C58.4458 327.11 59.9438 329.182 62.4638 329.182C64.9698 329.182 66.4678 327.11 66.4678 323.988C66.4678 320.88 64.9418 318.78 62.4638 318.78C59.9718 318.78 58.4458 320.88 58.4458 323.988ZM59.4398 323.988C59.4398 321.37 60.5458 319.704 62.4638 319.704C64.3818 319.704 65.4878 321.37 65.4878 323.988C65.4878 326.592 64.3818 328.272 62.4638 328.272C60.5458 328.272 59.4398 326.592 59.4398 323.988ZM68.0024 323.988C68.0024 327.11 69.5004 329.182 72.0204 329.182C74.5264 329.182 76.0244 327.11 76.0244 323.988C76.0244 320.88 74.4984 318.78 72.0204 318.78C69.5284 318.78 68.0024 320.88 68.0024 323.988ZM68.9964 323.988C68.9964 321.37 70.1024 319.704 72.0204 319.704C73.9384 319.704 75.0444 321.37 75.0444 323.988C75.0444 326.592 73.9384 328.272 72.0204 328.272C70.1024 328.272 68.9964 326.592 68.9964 323.988Z" fill="white"/>
<path d="M116.238 329V328.062H111.184L113.522 326.018C115.524 324.268 116.182 323.302 116.182 321.846C116.182 320.012 114.922 318.794 113.032 318.794C111.058 318.794 109.728 320.18 109.672 322.28H110.68C110.722 320.726 111.632 319.718 113.018 319.718C114.348 319.718 115.16 320.544 115.16 321.902C115.16 323.092 114.684 323.792 112.836 325.402L109.63 328.202V329H116.238ZM117.631 323.988C117.631 327.11 119.129 329.182 121.649 329.182C124.155 329.182 125.653 327.11 125.653 323.988C125.653 320.88 124.127 318.78 121.649 318.78C119.157 318.78 117.631 320.88 117.631 323.988ZM118.625 323.988C118.625 321.37 119.731 319.704 121.649 319.704C123.567 319.704 124.673 321.37 124.673 323.988C124.673 326.592 123.567 328.272 121.649 328.272C119.731 328.272 118.625 326.592 118.625 323.988ZM127.188 323.988C127.188 327.11 128.686 329.182 131.206 329.182C133.712 329.182 135.21 327.11 135.21 323.988C135.21 320.88 133.684 318.78 131.206 318.78C128.714 318.78 127.188 320.88 127.188 323.988ZM128.182 323.988C128.182 321.37 129.288 319.704 131.206 319.704C133.124 319.704 134.23 321.37 134.23 323.988C134.23 326.592 133.124 328.272 131.206 328.272C129.288 328.272 128.182 326.592 128.182 323.988Z" fill="white"/>
<path d="M174.542 323.624C176.334 323.624 177.314 324.478 177.314 325.85C177.314 327.306 176.348 328.258 174.85 328.258C173.436 328.258 172.54 327.39 172.54 325.948H171.546C171.546 327.95 172.876 329.168 174.85 329.168C176.88 329.168 178.336 327.866 178.336 325.878C178.336 324.058 176.992 322.868 175.116 322.77L178.112 319.788V318.976H172.036V319.872H176.838L173.744 322.924V323.624H174.542ZM179.727 323.988C179.727 327.11 181.225 329.182 183.745 329.182C186.251 329.182 187.749 327.11 187.749 323.988C187.749 320.88 186.223 318.78 183.745 318.78C181.253 318.78 179.727 320.88 179.727 323.988ZM180.721 323.988C180.721 321.37 181.827 319.704 183.745 319.704C185.663 319.704 186.769 321.37 186.769 323.988C186.769 326.592 185.663 328.272 183.745 328.272C181.827 328.272 180.721 326.592 180.721 323.988ZM189.284 323.988C189.284 327.11 190.782 329.182 193.302 329.182C195.808 329.182 197.306 327.11 197.306 323.988C197.306 320.88 195.78 318.78 193.302 318.78C190.81 318.78 189.284 320.88 189.284 323.988ZM190.278 323.988C190.278 321.37 191.384 319.704 193.302 319.704C195.22 319.704 196.326 321.37 196.326 323.988C196.326 326.592 195.22 328.272 193.302 328.272C191.384 328.272 190.278 326.592 190.278 323.988Z" fill="white"/>
<path d="M240.98 326.872V325.976H239.804V318.976H238.46L233.56 325.976V326.872H238.824V329H239.804V326.872H240.98ZM234.652 325.976L238.824 320.012V325.976H234.652ZM242.547 323.988C242.547 327.11 244.045 329.182 246.565 329.182C249.071 329.182 250.569 327.11 250.569 323.988C250.569 320.88 249.043 318.78 246.565 318.78C244.073 318.78 242.547 320.88 242.547 323.988ZM243.541 323.988C243.541 321.37 244.647 319.704 246.565 319.704C248.483 319.704 249.589 321.37 249.589 323.988C249.589 326.592 248.483 328.272 246.565 328.272C244.647 328.272 243.541 326.592 243.541 323.988ZM252.104 323.988C252.104 327.11 253.602 329.182 256.122 329.182C258.628 329.182 260.126 327.11 260.126 323.988C260.126 320.88 258.6 318.78 256.122 318.78C253.63 318.78 252.104 320.88 252.104 323.988ZM253.098 323.988C253.098 321.37 254.204 319.704 256.122 319.704C258.04 319.704 259.146 321.37 259.146 323.988C259.146 326.592 258.04 328.272 256.122 328.272C254.204 328.272 253.098 326.592 253.098 323.988Z" fill="white"/>
<rect x="53" y="69" width="15" height="73" rx="3" transform="rotate(-90 53 69)" fill="#36DFAE"/>
<rect x="53" y="104" width="15" height="57" rx="3" transform="rotate(-90 53 104)" fill="#36DFAE"/>
<rect x="53" y="139" width="15" height="114" rx="3" transform="rotate(-90 53 139)" fill="#36DFAE"/>
<rect x="53" y="177" width="15" height="132" rx="3" transform="rotate(-90 53 177)" fill="#36DFAE"/>
<rect x="53" y="215" width="15" height="177" rx="3" transform="rotate(-90 53 215)" fill="#36DFAE"/>
<rect x="53" y="255" width="15" height="73" rx="3" transform="rotate(-90 53 255)" fill="#36DFAE"/>
<rect x="53" y="294" width="15" height="63" rx="3" transform="rotate(-90 53 294)" fill="#36DFAE"/>
</svg>
