<svg width="194" height="48" viewBox="0 0 194 48" fill="none" xmlns="http://www.w3.org/2000/svg">
<path d="M21.256 45.2574L23.9989 48.0002L47.999 24.0001L26.7417 2.7428L8.91305 20.5715L15.0845 26.743L26.7417 15.0857L39.0847 27.4287L21.256 45.2574Z" fill="#FF4800"/>
<path d="M26.743 2.743L24.0001 0.000123059L-3.51278e-05 24.0003L21.2572 45.2576L39.0859 27.4289L32.9145 21.2574L21.2572 32.9146L8.91431 20.5717L26.743 2.743Z" fill="black"/>
<path d="M161.716 35C161.082 35 160.507 34.8333 159.991 34.5C159.474 34.15 159.057 33.7 158.741 33.15C158.424 32.6 158.266 32.0167 158.266 31.4V20.525C158.266 19.875 158.424 19.2917 158.741 18.775C159.057 18.2417 159.474 17.8167 159.991 17.5C160.507 17.1667 161.082 17 161.716 17H172.641C173.274 17 173.849 17.1667 174.366 17.5C174.882 17.8167 175.299 18.2417 175.616 18.775C175.932 19.2917 176.091 19.875 176.091 20.525V31.4C176.091 32.0167 175.932 32.6 175.616 33.15C175.299 33.7 174.882 34.15 174.366 34.5C173.849 34.8333 173.274 35 172.641 35H161.716ZM163.041 31.55H172.516C172.599 31.55 172.666 31.525 172.716 31.475C172.782 31.4083 172.816 31.3333 172.816 31.25V23.4L163.041 31.55ZM161.541 28.5L171.316 20.35H161.841C161.757 20.35 161.682 20.3833 161.616 20.45C161.566 20.5 161.541 20.5667 161.541 20.65V28.5Z" fill="#FF4800"/>
<path d="M178.84 35V34.125L184.165 27.625L178.84 21.375V20.5H182.39L186.29 25.1L190.19 20.5H193.74V21.375L188.415 27.625L193.74 34.125V35H190.215L186.29 30.2L182.39 35H178.84Z" fill="#FF4800"/>
<path d="M55.4502 35V17H69.9502C70.5835 17 71.1669 17.1583 71.7002 17.475C72.2335 17.7917 72.6585 18.2167 72.9752 18.75C73.2919 19.2667 73.4502 19.8417 73.4502 20.475V31.525C73.4502 32.1583 73.2919 32.7417 72.9752 33.275C72.6585 33.7917 72.2335 34.2083 71.7002 34.525C71.1669 34.8417 70.5835 35 69.9502 35H55.4502ZM59.0252 31.675H69.8002C69.8835 31.675 69.9585 31.65 70.0252 31.6C70.0919 31.5333 70.1252 31.4583 70.1252 31.375V20.625C70.1252 20.5417 70.0919 20.475 70.0252 20.425C69.9585 20.3583 69.8835 20.325 69.8002 20.325H59.0252C58.9419 20.325 58.8669 20.3583 58.8002 20.425C58.7502 20.475 58.7252 20.5417 58.7252 20.625V31.375C58.7252 31.4583 58.7502 31.5333 58.8002 31.6C58.8669 31.65 58.9419 31.675 59.0252 31.675Z" fill="black"/>
<path d="M79.6748 35C79.0415 35 78.4581 34.8417 77.9248 34.525C77.4081 34.2083 76.9915 33.7917 76.6748 33.275C76.3581 32.7417 76.1998 32.1583 76.1998 31.525V17H79.4998V31.375C79.4998 31.4583 79.5248 31.5333 79.5748 31.6C79.6415 31.65 79.7165 31.675 79.7998 31.675H90.5498C90.6331 31.675 90.7081 31.65 90.7748 31.6C90.8415 31.5333 90.8748 31.4583 90.8748 31.375V17H94.1998V31.525C94.1998 32.1583 94.0415 32.7417 93.7248 33.275C93.4081 33.7917 92.9831 34.2083 92.4498 34.525C91.9331 34.8417 91.3581 35 90.7248 35H79.6748Z" fill="black"/>
<path d="M103.403 35V20.325H96.0529V17H114.053V20.325H106.728V35H103.403Z" fill="black"/>
<path d="M119.398 35C118.764 35 118.181 34.8417 117.648 34.525C117.131 34.2083 116.714 33.7917 116.398 33.275C116.081 32.7417 115.923 32.1583 115.923 31.525V20.475C115.923 19.8417 116.081 19.2667 116.398 18.75C116.714 18.2167 117.131 17.7917 117.648 17.475C118.181 17.1583 118.764 17 119.398 17H133.873V20.325H120.098C119.831 20.325 119.614 20.4 119.448 20.55C119.298 20.7 119.223 20.9167 119.223 21.2V30.8C119.223 31.0667 119.298 31.2833 119.448 31.45C119.614 31.6 119.831 31.675 120.098 31.675H133.873V35H119.398Z" fill="black"/>
<path d="M136.504 35V17H139.804V24.325H151.604V17H154.904V35H151.604V27.675H139.804V35H136.504Z" fill="black"/>
</svg>
