<svg width="569" height="543" viewBox="0 0 569 543" fill="none" xmlns="http://www.w3.org/2000/svg">
<mask id="path-1-inside-1_956_357" fill="white">
<rect x="51" y="55" width="518" height="488" rx="4"/>
</mask>
<rect x="51" y="55" width="518" height="488" rx="4" stroke="white" stroke-width="40" mask="url(#path-1-inside-1_956_357)"/>
<g filter="url(#filter0_d_956_357)">
<rect x="4" width="518" height="493" rx="5" fill="#28473F"/>
</g>
<path d="M111.312 417C110.88 417 110.544 416.888 110.304 416.664C110.08 416.424 109.968 416.088 109.968 415.656V401.424C109.968 400.992 110.08 400.664 110.304 400.44C110.544 400.2 110.88 400.08 111.312 400.08H120.072C120.408 400.08 120.664 400.168 120.84 400.344C121.016 400.504 121.104 400.744 121.104 401.064C121.104 401.4 121.016 401.656 120.84 401.832C120.664 402.008 120.408 402.096 120.072 402.096H112.368V407.4H119.544C119.896 407.4 120.152 407.488 120.312 407.664C120.488 407.84 120.576 408.088 120.576 408.408C120.576 408.744 120.488 409 120.312 409.176C120.152 409.336 119.896 409.416 119.544 409.416H112.368V414.984H120.072C120.408 414.984 120.664 415.072 120.84 415.248C121.016 415.424 121.104 415.672 121.104 415.992C121.104 416.328 121.016 416.584 120.84 416.76C120.664 416.92 120.408 417 120.072 417H111.312ZM123.96 417.168C123.64 417.168 123.376 417.088 123.168 416.928C122.96 416.752 122.84 416.536 122.808 416.28C122.776 416.008 122.864 415.736 123.072 415.464L128.736 407.856V408.864L123.384 401.664C123.176 401.376 123.08 401.096 123.096 400.824C123.128 400.552 123.248 400.336 123.456 400.176C123.664 400 123.92 399.912 124.224 399.912C124.48 399.912 124.704 399.976 124.896 400.104C125.104 400.216 125.312 400.416 125.52 400.704L130.176 407.088H129.408L134.016 400.704C134.224 400.416 134.424 400.216 134.616 400.104C134.824 399.976 135.064 399.912 135.336 399.912C135.656 399.912 135.92 400 136.128 400.176C136.336 400.336 136.448 400.552 136.464 400.824C136.496 401.08 136.4 401.36 136.176 401.664L130.824 408.864V407.856L136.464 415.464C136.672 415.736 136.76 416.008 136.728 416.28C136.712 416.536 136.6 416.752 136.392 416.928C136.184 417.088 135.912 417.168 135.576 417.168C135.336 417.168 135.112 417.104 134.904 416.976C134.696 416.848 134.48 416.648 134.256 416.376L129.312 409.608H130.224L125.304 416.376C125.096 416.648 124.88 416.848 124.656 416.976C124.448 417.104 124.216 417.168 123.96 417.168ZM140.764 417.168C140.364 417.168 140.052 417.056 139.828 416.832C139.62 416.608 139.516 416.296 139.516 415.896V401.352C139.516 400.936 139.628 400.624 139.852 400.416C140.076 400.192 140.388 400.08 140.788 400.08H146.524C148.348 400.08 149.756 400.536 150.748 401.448C151.74 402.344 152.236 403.608 152.236 405.24C152.236 406.888 151.74 408.168 150.748 409.08C149.756 409.976 148.348 410.424 146.524 410.424H142.012V415.896C142.012 416.296 141.908 416.608 141.7 416.832C141.492 417.056 141.18 417.168 140.764 417.168ZM142.012 408.432H146.164C147.364 408.432 148.268 408.168 148.876 407.64C149.5 407.096 149.812 406.296 149.812 405.24C149.812 404.2 149.5 403.416 148.876 402.888C148.268 402.344 147.364 402.072 146.164 402.072H142.012V408.432ZM156.042 417C155.642 417 155.33 416.888 155.106 416.664C154.882 416.44 154.77 416.128 154.77 415.728V401.256C154.77 400.84 154.874 400.528 155.082 400.32C155.306 400.096 155.618 399.984 156.018 399.984C156.418 399.984 156.722 400.096 156.93 400.32C157.154 400.528 157.266 400.84 157.266 401.256V414.864H164.706C165.058 414.864 165.33 414.96 165.522 415.152C165.714 415.328 165.81 415.584 165.81 415.92C165.81 416.256 165.714 416.52 165.522 416.712C165.33 416.904 165.058 417 164.706 417H156.042ZM174.322 417.216C172.722 417.216 171.322 416.864 170.122 416.16C168.938 415.44 168.018 414.432 167.362 413.136C166.722 411.824 166.402 410.288 166.402 408.528C166.402 407.2 166.586 406.008 166.954 404.952C167.322 403.88 167.85 402.968 168.538 402.216C169.226 401.448 170.058 400.864 171.034 400.464C172.01 400.064 173.106 399.864 174.322 399.864C175.938 399.864 177.338 400.216 178.522 400.92C179.706 401.624 180.618 402.624 181.258 403.92C181.914 405.216 182.242 406.744 182.242 408.504C182.242 409.832 182.058 411.032 181.69 412.104C181.322 413.176 180.786 414.096 180.082 414.864C179.394 415.632 178.562 416.216 177.586 416.616C176.61 417.016 175.522 417.216 174.322 417.216ZM174.322 415.056C175.442 415.056 176.394 414.8 177.178 414.288C177.978 413.776 178.586 413.032 179.002 412.056C179.434 411.08 179.65 409.904 179.65 408.528C179.65 406.464 179.186 404.864 178.258 403.728C177.33 402.592 176.018 402.024 174.322 402.024C173.202 402.024 172.242 402.28 171.442 402.792C170.658 403.288 170.05 404.024 169.618 405C169.202 405.976 168.994 407.152 168.994 408.528C168.994 410.576 169.458 412.176 170.386 413.328C171.33 414.48 172.642 415.056 174.322 415.056ZM186.691 417.168C186.291 417.168 185.979 417.056 185.755 416.832C185.547 416.608 185.443 416.296 185.443 415.896V401.352C185.443 400.936 185.555 400.624 185.779 400.416C186.003 400.192 186.315 400.08 186.715 400.08H192.451C194.275 400.08 195.683 400.512 196.675 401.376C197.667 402.24 198.163 403.464 198.163 405.048C198.163 406.072 197.939 406.952 197.491 407.688C197.043 408.424 196.387 408.984 195.523 409.368C194.675 409.752 193.651 409.944 192.451 409.944L192.667 409.608H193.291C193.931 409.608 194.483 409.768 194.947 410.088C195.427 410.408 195.859 410.92 196.243 411.624L198.307 415.464C198.467 415.752 198.539 416.032 198.523 416.304C198.523 416.56 198.427 416.768 198.235 416.928C198.059 417.088 197.803 417.168 197.467 417.168C197.115 417.168 196.827 417.096 196.603 416.952C196.395 416.792 196.203 416.56 196.027 416.256L193.507 411.6C193.171 410.976 192.787 410.56 192.355 410.352C191.923 410.128 191.355 410.016 190.651 410.016H187.939V415.896C187.939 416.296 187.835 416.608 187.627 416.832C187.419 417.056 187.107 417.168 186.691 417.168ZM187.939 408.144H192.043C193.259 408.144 194.179 407.888 194.803 407.376C195.427 406.864 195.739 406.104 195.739 405.096C195.739 404.104 195.427 403.352 194.803 402.84C194.179 402.328 193.259 402.072 192.043 402.072H187.939V408.144ZM202.886 417C202.454 417 202.118 416.888 201.878 416.664C201.654 416.424 201.542 416.088 201.542 415.656V401.424C201.542 400.992 201.654 400.664 201.878 400.44C202.118 400.2 202.454 400.08 202.886 400.08H211.646C211.982 400.08 212.238 400.168 212.414 400.344C212.59 400.504 212.678 400.744 212.678 401.064C212.678 401.4 212.59 401.656 212.414 401.832C212.238 402.008 211.982 402.096 211.646 402.096H203.942V407.4H211.118C211.47 407.4 211.726 407.488 211.886 407.664C212.062 407.84 212.15 408.088 212.15 408.408C212.15 408.744 212.062 409 211.886 409.176C211.726 409.336 211.47 409.416 211.118 409.416H203.942V414.984H211.646C211.982 414.984 212.238 415.072 212.414 415.248C212.59 415.424 212.678 415.672 212.678 415.992C212.678 416.328 212.59 416.584 212.414 416.76C212.238 416.92 211.982 417 211.646 417H202.886Z" fill="white"/>
<path d="M243.336 399.664L252.669 408.997L243.336 418.331M231.336 408.997H252.669H231.336Z" stroke="white" stroke-width="2" stroke-linecap="round" stroke-linejoin="round"/>
<rect x="89" y="382" width="187" height="54" rx="7" stroke="white" stroke-width="2"/>
<path d="M94.3 336.18C93.6733 336.18 93.06 336.127 92.46 336.02C91.86 335.913 91.3 335.76 90.78 335.56C90.2733 335.36 89.8133 335.107 89.4 334.8C89.24 334.68 89.1267 334.547 89.06 334.4C89.0067 334.24 88.9933 334.087 89.02 333.94C89.06 333.78 89.1267 333.647 89.22 333.54C89.3267 333.433 89.4533 333.373 89.6 333.36C89.7467 333.347 89.9067 333.393 90.08 333.5C90.68 333.927 91.32 334.24 92 334.44C92.68 334.627 93.4467 334.72 94.3 334.72C95.5 334.72 96.3867 334.5 96.96 334.06C97.5467 333.607 97.84 333.013 97.84 332.28C97.84 331.68 97.6267 331.213 97.2 330.88C96.7867 330.533 96.0867 330.26 95.1 330.06L93.02 329.64C91.7667 329.373 90.8267 328.94 90.2 328.34C89.5867 327.727 89.28 326.913 89.28 325.9C89.28 325.273 89.4067 324.707 89.66 324.2C89.9133 323.68 90.2667 323.24 90.72 322.88C91.1733 322.507 91.7133 322.22 92.34 322.02C92.9667 321.82 93.66 321.72 94.42 321.72C95.26 321.72 96.04 321.84 96.76 322.08C97.4933 322.307 98.1533 322.653 98.74 323.12C98.8867 323.24 98.9867 323.38 99.04 323.54C99.0933 323.687 99.1 323.833 99.06 323.98C99.02 324.113 98.9467 324.227 98.84 324.32C98.7467 324.413 98.62 324.467 98.46 324.48C98.3133 324.493 98.1467 324.44 97.96 324.32C97.4267 323.92 96.8733 323.633 96.3 323.46C95.7267 323.273 95.0933 323.18 94.4 323.18C93.6933 323.18 93.08 323.287 92.56 323.5C92.0533 323.713 91.6533 324.027 91.36 324.44C91.08 324.84 90.94 325.307 90.94 325.84C90.94 326.48 91.1333 326.987 91.52 327.36C91.92 327.733 92.5667 328.007 93.46 328.18L95.54 328.62C96.8867 328.9 97.88 329.327 98.52 329.9C99.1733 330.46 99.5 331.227 99.5 332.2C99.5 332.787 99.38 333.327 99.14 333.82C98.9 334.313 98.5533 334.74 98.1 335.1C97.6467 335.447 97.1 335.713 96.46 335.9C95.82 336.087 95.1 336.18 94.3 336.18ZM104.885 336.18C104.218 336.18 103.618 336.053 103.085 335.8C102.565 335.533 102.151 335.173 101.845 334.72C101.538 334.267 101.385 333.76 101.385 333.2C101.385 332.48 101.565 331.913 101.925 331.5C102.298 331.087 102.905 330.793 103.745 330.62C104.598 330.447 105.758 330.36 107.225 330.36H108.125V331.42H107.245C106.165 331.42 105.311 331.473 104.685 331.58C104.071 331.673 103.638 331.84 103.385 332.08C103.145 332.32 103.025 332.66 103.025 333.1C103.025 333.647 103.211 334.093 103.585 334.44C103.971 334.787 104.491 334.96 105.145 334.96C105.678 334.96 106.145 334.833 106.545 334.58C106.958 334.327 107.278 333.98 107.505 333.54C107.745 333.1 107.865 332.593 107.865 332.02V329.74C107.865 328.913 107.698 328.32 107.365 327.96C107.031 327.587 106.485 327.4 105.725 327.4C105.258 327.4 104.791 327.46 104.325 327.58C103.858 327.7 103.365 327.893 102.845 328.16C102.658 328.253 102.498 328.287 102.365 328.26C102.231 328.22 102.125 328.147 102.045 328.04C101.965 327.933 101.918 327.813 101.905 327.68C101.891 327.533 101.918 327.393 101.985 327.26C102.065 327.127 102.185 327.02 102.345 326.94C102.931 326.647 103.511 326.433 104.085 326.3C104.658 326.167 105.205 326.1 105.725 326.1C106.565 326.1 107.258 326.24 107.805 326.52C108.351 326.787 108.758 327.2 109.025 327.76C109.291 328.307 109.425 329.013 109.425 329.88V335.3C109.425 335.567 109.358 335.773 109.225 335.92C109.105 336.067 108.925 336.14 108.685 336.14C108.431 336.14 108.238 336.067 108.105 335.92C107.971 335.773 107.905 335.567 107.905 335.3V333.74H108.085C107.978 334.247 107.771 334.68 107.465 335.04C107.171 335.4 106.805 335.68 106.365 335.88C105.925 336.08 105.431 336.18 104.885 336.18ZM115.39 336.18C114.43 336.18 113.697 335.887 113.19 335.3C112.683 334.713 112.43 333.873 112.43 332.78V322.58C112.43 322.313 112.497 322.113 112.63 321.98C112.763 321.833 112.963 321.76 113.23 321.76C113.483 321.76 113.683 321.833 113.83 321.98C113.977 322.113 114.05 322.313 114.05 322.58V332.66C114.05 333.38 114.19 333.92 114.47 334.28C114.763 334.627 115.19 334.8 115.75 334.8C115.87 334.8 115.977 334.793 116.07 334.78C116.163 334.767 116.257 334.76 116.35 334.76C116.497 334.747 116.597 334.78 116.65 334.86C116.717 334.94 116.75 335.1 116.75 335.34C116.75 335.58 116.697 335.76 116.59 335.88C116.483 336 116.31 336.08 116.07 336.12C115.963 336.133 115.85 336.147 115.73 336.16C115.61 336.173 115.497 336.18 115.39 336.18ZM122.63 336.18C121.604 336.18 120.717 335.98 119.97 335.58C119.237 335.167 118.664 334.587 118.25 333.84C117.85 333.093 117.65 332.2 117.65 331.16C117.65 330.147 117.85 329.267 118.25 328.52C118.65 327.76 119.197 327.167 119.89 326.74C120.597 326.313 121.41 326.1 122.33 326.1C122.984 326.1 123.57 326.213 124.09 326.44C124.61 326.653 125.05 326.967 125.41 327.38C125.784 327.793 126.064 328.293 126.25 328.88C126.45 329.467 126.55 330.127 126.55 330.86C126.55 331.073 126.49 331.233 126.37 331.34C126.25 331.433 126.077 331.48 125.85 331.48H118.89V330.42H125.47L125.15 330.68C125.15 329.96 125.044 329.353 124.83 328.86C124.617 328.353 124.304 327.967 123.89 327.7C123.49 327.433 122.984 327.3 122.37 327.3C121.69 327.3 121.11 327.46 120.63 327.78C120.164 328.087 119.81 328.52 119.57 329.08C119.33 329.627 119.21 330.267 119.21 331V331.12C119.21 332.347 119.504 333.28 120.09 333.92C120.69 334.56 121.537 334.88 122.63 334.88C123.084 334.88 123.53 334.82 123.97 334.7C124.424 334.58 124.864 334.38 125.29 334.1C125.477 333.98 125.644 333.927 125.79 333.94C125.95 333.94 126.077 333.987 126.17 334.08C126.264 334.16 126.324 334.267 126.35 334.4C126.39 334.52 126.377 334.653 126.31 334.8C126.257 334.947 126.144 335.073 125.97 335.18C125.53 335.5 125.01 335.747 124.41 335.92C123.81 336.093 123.217 336.18 122.63 336.18ZM132.175 336.18C131.575 336.18 130.968 336.107 130.355 335.96C129.755 335.813 129.195 335.56 128.675 335.2C128.542 335.107 128.448 335 128.395 334.88C128.342 334.747 128.322 334.62 128.335 334.5C128.362 334.367 128.415 334.253 128.495 334.16C128.588 334.067 128.695 334.013 128.815 334C128.948 333.973 129.095 334 129.255 334.08C129.775 334.4 130.275 334.627 130.755 334.76C131.248 334.88 131.735 334.94 132.215 334.94C132.975 334.94 133.548 334.8 133.935 334.52C134.322 334.24 134.515 333.86 134.515 333.38C134.515 333.007 134.388 332.713 134.135 332.5C133.882 332.273 133.482 332.1 132.935 331.98L131.115 331.58C130.275 331.407 129.648 331.107 129.235 330.68C128.835 330.253 128.635 329.7 128.635 329.02C128.635 328.42 128.788 327.907 129.095 327.48C129.415 327.04 129.862 326.7 130.435 326.46C131.008 326.22 131.675 326.1 132.435 326.1C133.022 326.1 133.575 326.18 134.095 326.34C134.628 326.487 135.108 326.727 135.535 327.06C135.668 327.153 135.755 327.267 135.795 327.4C135.848 327.52 135.855 327.647 135.815 327.78C135.788 327.9 135.728 328.007 135.635 328.1C135.542 328.18 135.428 328.227 135.295 328.24C135.162 328.253 135.022 328.213 134.875 328.12C134.475 327.853 134.068 327.66 133.655 327.54C133.242 327.407 132.835 327.34 132.435 327.34C131.688 327.34 131.122 327.487 130.735 327.78C130.348 328.073 130.155 328.46 130.155 328.94C130.155 329.313 130.275 329.62 130.515 329.86C130.755 330.1 131.128 330.273 131.635 330.38L133.455 330.76C134.322 330.947 134.968 331.247 135.395 331.66C135.835 332.06 136.055 332.607 136.055 333.3C136.055 334.18 135.702 334.88 134.995 335.4C134.288 335.92 133.348 336.18 132.175 336.18ZM148.06 336.18C147.033 336.18 146.147 335.98 145.4 335.58C144.667 335.167 144.093 334.587 143.68 333.84C143.28 333.093 143.08 332.2 143.08 331.16C143.08 330.147 143.28 329.267 143.68 328.52C144.08 327.76 144.627 327.167 145.32 326.74C146.027 326.313 146.84 326.1 147.76 326.1C148.413 326.1 149 326.213 149.52 326.44C150.04 326.653 150.48 326.967 150.84 327.38C151.213 327.793 151.493 328.293 151.68 328.88C151.88 329.467 151.98 330.127 151.98 330.86C151.98 331.073 151.92 331.233 151.8 331.34C151.68 331.433 151.507 331.48 151.28 331.48H144.32V330.42H150.9L150.58 330.68C150.58 329.96 150.473 329.353 150.26 328.86C150.047 328.353 149.733 327.967 149.32 327.7C148.92 327.433 148.413 327.3 147.8 327.3C147.12 327.3 146.54 327.46 146.06 327.78C145.593 328.087 145.24 328.52 145 329.08C144.76 329.627 144.64 330.267 144.64 331V331.12C144.64 332.347 144.933 333.28 145.52 333.92C146.12 334.56 146.967 334.88 148.06 334.88C148.513 334.88 148.96 334.82 149.4 334.7C149.853 334.58 150.293 334.38 150.72 334.1C150.907 333.98 151.073 333.927 151.22 333.94C151.38 333.94 151.507 333.987 151.6 334.08C151.693 334.16 151.753 334.267 151.78 334.4C151.82 334.52 151.807 334.653 151.74 334.8C151.687 334.947 151.573 335.073 151.4 335.18C150.96 335.5 150.44 335.747 149.84 335.92C149.24 336.093 148.647 336.18 148.06 336.18ZM155.125 336.14C154.858 336.14 154.658 336.067 154.525 335.92C154.391 335.773 154.325 335.567 154.325 335.3V326.96C154.325 326.693 154.391 326.493 154.525 326.36C154.658 326.213 154.851 326.14 155.105 326.14C155.358 326.14 155.551 326.213 155.685 326.36C155.831 326.493 155.905 326.693 155.905 326.96V328.68L155.685 328.44C155.965 327.667 156.418 327.087 157.045 326.7C157.685 326.3 158.418 326.1 159.245 326.1C160.018 326.1 160.658 326.24 161.165 326.52C161.685 326.8 162.071 327.227 162.325 327.8C162.578 328.36 162.705 329.073 162.705 329.94V335.3C162.705 335.567 162.631 335.773 162.485 335.92C162.351 336.067 162.158 336.14 161.905 336.14C161.638 336.14 161.431 336.067 161.285 335.92C161.151 335.773 161.085 335.567 161.085 335.3V330.04C161.085 329.133 160.905 328.473 160.545 328.06C160.198 327.633 159.638 327.42 158.865 327.42C157.971 327.42 157.258 327.7 156.725 328.26C156.205 328.807 155.945 329.54 155.945 330.46V335.3C155.945 335.86 155.671 336.14 155.125 336.14ZM169.392 336.18C168.525 336.18 167.765 335.973 167.112 335.56C166.472 335.147 165.972 334.567 165.612 333.82C165.265 333.06 165.092 332.167 165.092 331.14C165.092 330.1 165.265 329.207 165.612 328.46C165.972 327.7 166.472 327.12 167.112 326.72C167.765 326.307 168.525 326.1 169.392 326.1C170.272 326.1 171.025 326.32 171.652 326.76C172.279 327.2 172.699 327.793 172.912 328.54H172.692V322.58C172.692 322.313 172.759 322.113 172.892 321.98C173.039 321.833 173.245 321.76 173.512 321.76C173.765 321.76 173.959 321.833 174.092 321.98C174.239 322.113 174.312 322.313 174.312 322.58V335.3C174.312 335.567 174.245 335.773 174.112 335.92C173.979 336.067 173.779 336.14 173.512 336.14C173.259 336.14 173.059 336.067 172.912 335.92C172.779 335.773 172.712 335.567 172.712 335.3V333.4L172.932 333.68C172.719 334.44 172.292 335.047 171.652 335.5C171.025 335.953 170.272 336.18 169.392 336.18ZM169.732 334.88C170.332 334.88 170.859 334.733 171.312 334.44C171.765 334.147 172.112 333.72 172.352 333.16C172.605 332.6 172.732 331.927 172.732 331.14C172.732 329.927 172.459 329 171.912 328.36C171.379 327.72 170.652 327.4 169.732 327.4C169.119 327.4 168.585 327.547 168.132 327.84C167.692 328.12 167.345 328.54 167.092 329.1C166.852 329.647 166.732 330.327 166.732 331.14C166.732 332.34 167.005 333.267 167.552 333.92C168.099 334.56 168.825 334.88 169.732 334.88ZM180.632 336.18C180.032 336.18 179.425 336.107 178.812 335.96C178.212 335.813 177.652 335.56 177.132 335.2C176.999 335.107 176.905 335 176.852 334.88C176.799 334.747 176.779 334.62 176.792 334.5C176.819 334.367 176.872 334.253 176.952 334.16C177.045 334.067 177.152 334.013 177.272 334C177.405 333.973 177.552 334 177.712 334.08C178.232 334.4 178.732 334.627 179.212 334.76C179.705 334.88 180.192 334.94 180.672 334.94C181.432 334.94 182.005 334.8 182.392 334.52C182.779 334.24 182.972 333.86 182.972 333.38C182.972 333.007 182.845 332.713 182.592 332.5C182.339 332.273 181.939 332.1 181.392 331.98L179.572 331.58C178.732 331.407 178.105 331.107 177.692 330.68C177.292 330.253 177.092 329.7 177.092 329.02C177.092 328.42 177.245 327.907 177.552 327.48C177.872 327.04 178.319 326.7 178.892 326.46C179.465 326.22 180.132 326.1 180.892 326.1C181.479 326.1 182.032 326.18 182.552 326.34C183.085 326.487 183.565 326.727 183.992 327.06C184.125 327.153 184.212 327.267 184.252 327.4C184.305 327.52 184.312 327.647 184.272 327.78C184.245 327.9 184.185 328.007 184.092 328.1C183.999 328.18 183.885 328.227 183.752 328.24C183.619 328.253 183.479 328.213 183.332 328.12C182.932 327.853 182.525 327.66 182.112 327.54C181.699 327.407 181.292 327.34 180.892 327.34C180.145 327.34 179.579 327.487 179.192 327.78C178.805 328.073 178.612 328.46 178.612 328.94C178.612 329.313 178.732 329.62 178.972 329.86C179.212 330.1 179.585 330.273 180.092 330.38L181.912 330.76C182.779 330.947 183.425 331.247 183.852 331.66C184.292 332.06 184.512 332.607 184.512 333.3C184.512 334.18 184.159 334.88 183.452 335.4C182.745 335.92 181.805 336.18 180.632 336.18ZM196.177 336.18C195.231 336.18 194.411 335.973 193.717 335.56C193.024 335.147 192.484 334.567 192.097 333.82C191.724 333.06 191.537 332.167 191.537 331.14C191.537 330.367 191.644 329.673 191.857 329.06C192.071 328.433 192.384 327.9 192.797 327.46C193.211 327.02 193.697 326.687 194.257 326.46C194.831 326.22 195.471 326.1 196.177 326.1C197.124 326.1 197.944 326.307 198.637 326.72C199.331 327.133 199.864 327.72 200.237 328.48C200.624 329.227 200.817 330.113 200.817 331.14C200.817 331.913 200.711 332.607 200.497 333.22C200.284 333.833 199.971 334.367 199.557 334.82C199.144 335.26 198.651 335.6 198.077 335.84C197.517 336.067 196.884 336.18 196.177 336.18ZM196.177 334.88C196.777 334.88 197.304 334.733 197.757 334.44C198.211 334.147 198.557 333.72 198.797 333.16C199.051 332.6 199.177 331.927 199.177 331.14C199.177 329.927 198.904 329 198.357 328.36C197.824 327.72 197.097 327.4 196.177 327.4C195.564 327.4 195.031 327.547 194.577 327.84C194.137 328.12 193.791 328.54 193.537 329.1C193.297 329.647 193.177 330.327 193.177 331.14C193.177 332.34 193.451 333.267 193.997 333.92C194.544 334.56 195.271 334.88 196.177 334.88ZM204.05 336.14C203.784 336.14 203.584 336.067 203.45 335.92C203.317 335.773 203.25 335.567 203.25 335.3V326.96C203.25 326.693 203.317 326.493 203.45 326.36C203.584 326.213 203.777 326.14 204.03 326.14C204.284 326.14 204.477 326.213 204.61 326.36C204.757 326.493 204.83 326.693 204.83 326.96V328.68L204.61 328.44C204.89 327.667 205.344 327.087 205.97 326.7C206.61 326.3 207.344 326.1 208.17 326.1C208.944 326.1 209.584 326.24 210.09 326.52C210.61 326.8 210.997 327.227 211.25 327.8C211.504 328.36 211.63 329.073 211.63 329.94V335.3C211.63 335.567 211.557 335.773 211.41 335.92C211.277 336.067 211.084 336.14 210.83 336.14C210.564 336.14 210.357 336.067 210.21 335.92C210.077 335.773 210.01 335.567 210.01 335.3V330.04C210.01 329.133 209.83 328.473 209.47 328.06C209.124 327.633 208.564 327.42 207.79 327.42C206.897 327.42 206.184 327.7 205.65 328.26C205.13 328.807 204.87 329.54 204.87 330.46V335.3C204.87 335.86 204.597 336.14 204.05 336.14ZM220.834 336C220.541 336 220.321 335.933 220.174 335.8C220.041 335.653 219.974 335.46 219.974 335.22C219.974 335.073 220.007 334.933 220.074 334.8C220.154 334.653 220.261 334.507 220.394 334.36L224.874 329.56C225.554 328.827 226.041 328.153 226.334 327.54C226.641 326.913 226.794 326.28 226.794 325.64C226.794 324.84 226.547 324.233 226.054 323.82C225.574 323.393 224.867 323.18 223.934 323.18C223.334 323.18 222.767 323.273 222.234 323.46C221.701 323.647 221.187 323.933 220.694 324.32C220.521 324.453 220.361 324.513 220.214 324.5C220.081 324.487 219.961 324.433 219.854 324.34C219.747 324.247 219.674 324.127 219.634 323.98C219.594 323.833 219.594 323.687 219.634 323.54C219.687 323.393 219.794 323.26 219.954 323.14C220.474 322.713 221.101 322.373 221.834 322.12C222.567 321.853 223.314 321.72 224.074 321.72C225.021 321.72 225.821 321.867 226.474 322.16C227.127 322.453 227.621 322.887 227.954 323.46C228.287 324.02 228.454 324.707 228.454 325.52C228.454 326.08 228.361 326.633 228.174 327.18C228.001 327.713 227.727 328.26 227.354 328.82C226.994 329.38 226.521 329.96 225.934 330.56L221.674 335.06V334.6H228.414C228.667 334.6 228.854 334.66 228.974 334.78C229.107 334.887 229.174 335.053 229.174 335.28C229.174 335.52 229.107 335.7 228.974 335.82C228.854 335.94 228.667 336 228.414 336H220.834ZM235.266 336.18C234.666 336.18 234.039 336.06 233.386 335.82C232.733 335.58 232.159 335.233 231.666 334.78C231.519 334.673 231.426 334.547 231.386 334.4C231.359 334.253 231.366 334.113 231.406 333.98C231.446 333.833 231.513 333.713 231.606 333.62C231.713 333.513 231.839 333.46 231.986 333.46C232.133 333.447 232.286 333.5 232.446 333.62C232.899 334.007 233.366 334.287 233.846 334.46C234.326 334.633 234.813 334.72 235.306 334.72C236.173 334.72 236.906 334.507 237.506 334.08C238.119 333.653 238.579 333.007 238.886 332.14C239.206 331.273 239.366 330.2 239.366 328.92V327.06H239.546C239.466 327.807 239.239 328.46 238.866 329.02C238.506 329.58 238.039 330.007 237.466 330.3C236.893 330.593 236.246 330.74 235.526 330.74C234.699 330.74 233.966 330.553 233.326 330.18C232.686 329.807 232.186 329.28 231.826 328.6C231.466 327.92 231.286 327.153 231.286 326.3C231.286 325.407 231.473 324.62 231.846 323.94C232.233 323.247 232.759 322.707 233.426 322.32C234.106 321.92 234.886 321.72 235.766 321.72C236.873 321.72 237.813 321.993 238.586 322.54C239.373 323.073 239.966 323.853 240.366 324.88C240.766 325.907 240.966 327.147 240.966 328.6C240.966 329.827 240.839 330.907 240.586 331.84C240.333 332.773 239.959 333.567 239.466 334.22C238.973 334.86 238.373 335.347 237.666 335.68C236.959 336.013 236.159 336.18 235.266 336.18ZM235.866 329.36C236.466 329.36 236.993 329.227 237.446 328.96C237.899 328.693 238.253 328.327 238.506 327.86C238.759 327.38 238.886 326.833 238.886 326.22C238.886 325.607 238.759 325.067 238.506 324.6C238.253 324.133 237.899 323.767 237.446 323.5C236.993 323.233 236.466 323.1 235.866 323.1C235.279 323.1 234.759 323.233 234.306 323.5C233.866 323.767 233.513 324.133 233.246 324.6C232.993 325.067 232.866 325.607 232.866 326.22C232.866 326.833 232.993 327.38 233.246 327.86C233.513 328.327 233.866 328.693 234.306 328.96C234.759 329.227 235.279 329.36 235.866 329.36ZM247.658 336.18C246.898 336.18 246.258 336.047 245.738 335.78C245.232 335.5 244.852 335.1 244.598 334.58C244.345 334.047 244.218 333.4 244.218 332.64V327.54H242.878C242.652 327.54 242.478 327.487 242.358 327.38C242.238 327.26 242.178 327.1 242.178 326.9C242.178 326.7 242.238 326.547 242.358 326.44C242.478 326.333 242.652 326.28 242.878 326.28H244.218V323.98C244.218 323.713 244.292 323.513 244.438 323.38C244.585 323.233 244.785 323.16 245.038 323.16C245.292 323.16 245.485 323.233 245.618 323.38C245.765 323.513 245.838 323.713 245.838 323.98V326.28H248.358C248.585 326.28 248.758 326.333 248.878 326.44C248.998 326.547 249.058 326.7 249.058 326.9C249.058 327.1 248.998 327.26 248.878 327.38C248.758 327.487 248.585 327.54 248.358 327.54H245.838V332.48C245.838 333.24 245.998 333.82 246.318 334.22C246.638 334.607 247.158 334.8 247.878 334.8C248.132 334.8 248.345 334.773 248.518 334.72C248.705 334.667 248.858 334.64 248.978 334.64C249.098 334.627 249.198 334.667 249.278 334.76C249.358 334.853 249.398 335.013 249.398 335.24C249.398 335.4 249.365 335.547 249.298 335.68C249.245 335.813 249.145 335.907 248.998 335.96C248.838 336.013 248.625 336.06 248.358 336.1C248.105 336.153 247.872 336.18 247.658 336.18ZM251.668 336.14C251.401 336.14 251.201 336.067 251.068 335.92C250.934 335.773 250.868 335.567 250.868 335.3V322.58C250.868 322.313 250.934 322.113 251.068 321.98C251.201 321.833 251.401 321.76 251.668 321.76C251.921 321.76 252.121 321.833 252.268 321.98C252.414 322.113 252.488 322.313 252.488 322.58V328.44H252.228C252.508 327.667 252.961 327.087 253.588 326.7C254.228 326.3 254.961 326.1 255.788 326.1C256.561 326.1 257.201 326.24 257.708 326.52C258.228 326.8 258.614 327.227 258.868 327.8C259.121 328.36 259.248 329.073 259.248 329.94V335.3C259.248 335.567 259.174 335.773 259.028 335.92C258.894 336.067 258.701 336.14 258.448 336.14C258.181 336.14 257.974 336.067 257.828 335.92C257.694 335.773 257.628 335.567 257.628 335.3V330.04C257.628 329.133 257.448 328.473 257.088 328.06C256.741 327.633 256.181 327.42 255.408 327.42C254.514 327.42 253.801 327.7 253.268 328.26C252.748 328.807 252.488 329.54 252.488 330.46V335.3C252.488 335.86 252.214 336.14 251.668 336.14ZM268.411 336.14C268.171 336.14 267.984 336.073 267.851 335.94C267.718 335.793 267.651 335.593 267.651 335.34V322.56C267.651 322.293 267.718 322.093 267.851 321.96C267.984 321.827 268.171 321.76 268.411 321.76C268.624 321.76 268.791 321.807 268.911 321.9C269.044 321.98 269.164 322.12 269.271 322.32L274.751 332.64H274.151L279.611 322.32C279.718 322.12 279.831 321.98 279.951 321.9C280.071 321.807 280.244 321.76 280.471 321.76C280.698 321.76 280.878 321.827 281.011 321.96C281.144 322.093 281.211 322.293 281.211 322.56V335.34C281.211 335.593 281.144 335.793 281.011 335.94C280.891 336.073 280.704 336.14 280.451 336.14C280.211 336.14 280.024 336.073 279.891 335.94C279.758 335.793 279.691 335.593 279.691 335.34V324.1H280.171L275.171 333.48C275.078 333.653 274.978 333.78 274.871 333.86C274.778 333.927 274.638 333.96 274.451 333.96C274.264 333.96 274.118 333.92 274.011 333.84C273.904 333.76 273.811 333.64 273.731 333.48L268.671 324.08H269.151V335.34C269.151 335.593 269.084 335.793 268.951 335.94C268.831 336.073 268.651 336.14 268.411 336.14ZM287.56 336.18C286.894 336.18 286.294 336.053 285.76 335.8C285.24 335.533 284.827 335.173 284.52 334.72C284.214 334.267 284.06 333.76 284.06 333.2C284.06 332.48 284.24 331.913 284.6 331.5C284.974 331.087 285.58 330.793 286.42 330.62C287.274 330.447 288.434 330.36 289.9 330.36H290.8V331.42H289.92C288.84 331.42 287.987 331.473 287.36 331.58C286.747 331.673 286.314 331.84 286.06 332.08C285.82 332.32 285.7 332.66 285.7 333.1C285.7 333.647 285.887 334.093 286.26 334.44C286.647 334.787 287.167 334.96 287.82 334.96C288.354 334.96 288.82 334.833 289.22 334.58C289.634 334.327 289.954 333.98 290.18 333.54C290.42 333.1 290.54 332.593 290.54 332.02V329.74C290.54 328.913 290.374 328.32 290.04 327.96C289.707 327.587 289.16 327.4 288.4 327.4C287.934 327.4 287.467 327.46 287 327.58C286.534 327.7 286.04 327.893 285.52 328.16C285.334 328.253 285.174 328.287 285.04 328.26C284.907 328.22 284.8 328.147 284.72 328.04C284.64 327.933 284.594 327.813 284.58 327.68C284.567 327.533 284.594 327.393 284.66 327.26C284.74 327.127 284.86 327.02 285.02 326.94C285.607 326.647 286.187 326.433 286.76 326.3C287.334 326.167 287.88 326.1 288.4 326.1C289.24 326.1 289.934 326.24 290.48 326.52C291.027 326.787 291.434 327.2 291.7 327.76C291.967 328.307 292.1 329.013 292.1 329.88V335.3C292.1 335.567 292.034 335.773 291.9 335.92C291.78 336.067 291.6 336.14 291.36 336.14C291.107 336.14 290.914 336.067 290.78 335.92C290.647 335.773 290.58 335.567 290.58 335.3V333.74H290.76C290.654 334.247 290.447 334.68 290.14 335.04C289.847 335.4 289.48 335.68 289.04 335.88C288.6 336.08 288.107 336.18 287.56 336.18ZM295.926 336.14C295.659 336.14 295.453 336.067 295.306 335.92C295.173 335.773 295.106 335.567 295.106 335.3V326.96C295.106 326.693 295.173 326.493 295.306 326.36C295.439 326.213 295.633 326.14 295.886 326.14C296.139 326.14 296.333 326.213 296.466 326.36C296.613 326.493 296.686 326.693 296.686 326.96V328.58H296.486C296.699 327.793 297.106 327.187 297.706 326.76C298.306 326.333 299.046 326.107 299.926 326.08C300.126 326.067 300.286 326.113 300.406 326.22C300.526 326.313 300.593 326.48 300.606 326.72C300.619 326.947 300.566 327.127 300.446 327.26C300.326 327.393 300.139 327.473 299.886 327.5L299.566 327.54C298.659 327.62 297.959 327.913 297.466 328.42C296.986 328.913 296.746 329.593 296.746 330.46V335.3C296.746 335.567 296.673 335.773 296.526 335.92C296.393 336.067 296.193 336.14 295.926 336.14ZM306.277 336.18C305.303 336.18 304.463 335.967 303.757 335.54C303.05 335.113 302.503 334.52 302.117 333.76C301.743 332.987 301.557 332.093 301.557 331.08C301.557 330.307 301.663 329.613 301.877 329C302.09 328.387 302.403 327.867 302.817 327.44C303.23 327 303.723 326.667 304.297 326.44C304.883 326.213 305.543 326.1 306.277 326.1C306.757 326.1 307.257 326.173 307.777 326.32C308.297 326.467 308.77 326.72 309.197 327.08C309.33 327.173 309.417 327.287 309.457 327.42C309.497 327.553 309.497 327.687 309.457 327.82C309.417 327.94 309.35 328.047 309.257 328.14C309.163 328.22 309.043 328.267 308.897 328.28C308.763 328.293 308.623 328.247 308.477 328.14C308.13 327.873 307.777 327.687 307.417 327.58C307.057 327.473 306.71 327.42 306.377 327.42C305.857 327.42 305.403 327.507 305.017 327.68C304.63 327.84 304.303 328.073 304.037 328.38C303.77 328.687 303.563 329.067 303.417 329.52C303.283 329.973 303.217 330.5 303.217 331.1C303.217 332.26 303.49 333.18 304.037 333.86C304.583 334.527 305.363 334.86 306.377 334.86C306.71 334.86 307.05 334.807 307.397 334.7C307.757 334.593 308.117 334.407 308.477 334.14C308.623 334.033 308.763 333.987 308.897 334C309.03 334.013 309.143 334.067 309.237 334.16C309.33 334.24 309.39 334.347 309.417 334.48C309.457 334.613 309.457 334.747 309.417 334.88C309.377 335 309.29 335.107 309.157 335.2C308.73 335.547 308.263 335.8 307.757 335.96C307.25 336.107 306.757 336.18 306.277 336.18ZM312.215 336.14C311.948 336.14 311.748 336.067 311.615 335.92C311.481 335.773 311.415 335.567 311.415 335.3V322.58C311.415 322.313 311.481 322.113 311.615 321.98C311.748 321.833 311.948 321.76 312.215 321.76C312.468 321.76 312.668 321.833 312.815 321.98C312.961 322.113 313.035 322.313 313.035 322.58V328.44H312.775C313.055 327.667 313.508 327.087 314.135 326.7C314.775 326.3 315.508 326.1 316.335 326.1C317.108 326.1 317.748 326.24 318.255 326.52C318.775 326.8 319.161 327.227 319.415 327.8C319.668 328.36 319.795 329.073 319.795 329.94V335.3C319.795 335.567 319.721 335.773 319.575 335.92C319.441 336.067 319.248 336.14 318.995 336.14C318.728 336.14 318.521 336.067 318.375 335.92C318.241 335.773 318.175 335.567 318.175 335.3V330.04C318.175 329.133 317.995 328.473 317.635 328.06C317.288 327.633 316.728 327.42 315.955 327.42C315.061 327.42 314.348 327.7 313.815 328.26C313.295 328.807 313.035 329.54 313.035 330.46V335.3C313.035 335.86 312.761 336.14 312.215 336.14Z" fill="#F3F3F3"/>
<path d="M94.678 74.824C94.678 75.888 94.958 76.756 95.518 77.428C96.078 78.1 96.82 78.66 97.744 79.108C98.696 79.528 99.732 79.906 100.852 80.242C101.972 80.578 103.092 80.956 104.212 81.376C105.332 81.768 106.354 82.272 107.278 82.888C108.202 83.476 108.944 84.26 109.504 85.24C110.092 86.192 110.386 87.396 110.386 88.852C110.386 90.812 109.882 92.422 108.874 93.682C107.894 94.942 106.578 95.88 104.926 96.496C103.274 97.084 101.468 97.378 99.508 97.378C98.108 97.378 96.68 97.238 95.224 96.958C93.768 96.65 92.34 96.202 90.94 95.614L91.192 88.726H93.25L93.964 94.102L93.544 93.388C94.524 93.836 95.546 94.172 96.61 94.396C97.674 94.62 98.71 94.732 99.718 94.732C101.034 94.732 102.238 94.536 103.33 94.144C104.422 93.724 105.304 93.122 105.976 92.338C106.648 91.526 106.984 90.518 106.984 89.314C106.984 88.194 106.69 87.298 106.102 86.626C105.542 85.926 104.8 85.352 103.876 84.904C102.952 84.456 101.93 84.064 100.81 83.728C99.69 83.392 98.57 83.042 97.45 82.678C96.33 82.286 95.308 81.796 94.384 81.208C93.46 80.62 92.704 79.864 92.116 78.94C91.556 77.988 91.276 76.784 91.276 75.328C91.276 73.536 91.71 72.052 92.578 70.876C93.474 69.672 94.678 68.776 96.19 68.188C97.73 67.6 99.438 67.306 101.314 67.306C102.63 67.306 104.002 67.446 105.43 67.726C106.858 68.006 108.258 68.44 109.63 69.028L109.294 75.622H107.194L106.564 70.582L107.068 71.086C106.228 70.722 105.318 70.442 104.338 70.246C103.358 70.05 102.378 69.952 101.398 69.952C100.25 69.952 99.158 70.12 98.122 70.456C97.086 70.764 96.246 71.282 95.602 72.01C94.986 72.71 94.678 73.648 94.678 74.824ZM113.005 106.66V104.854L116.827 103.972L116.281 104.602V77.008L116.785 77.554L113.005 76.756V74.95L118.885 74.656L119.305 78.31L118.927 78.058C120.215 76.854 121.503 75.958 122.791 75.37C124.079 74.754 125.353 74.446 126.613 74.446C128.181 74.446 129.581 74.88 130.813 75.748C132.073 76.616 133.067 77.876 133.795 79.528C134.523 81.152 134.887 83.154 134.887 85.534C134.887 88.11 134.439 90.28 133.543 92.044C132.675 93.808 131.443 95.152 129.847 96.076C128.251 96.972 126.375 97.42 124.219 97.42C123.435 97.42 122.623 97.35 121.783 97.21C120.943 97.07 120.061 96.888 119.137 96.664L119.641 96.202V104.602L119.179 104.014L123.505 104.854V106.66H113.005ZM123.841 94.9C126.305 94.9 128.181 94.102 129.469 92.506C130.757 90.91 131.401 88.698 131.401 85.87C131.401 84.022 131.135 82.44 130.603 81.124C130.099 79.808 129.399 78.8 128.503 78.1C127.607 77.372 126.585 77.008 125.437 77.008C124.457 77.008 123.435 77.274 122.371 77.806C121.335 78.31 120.285 79.094 119.221 80.158L119.641 79.108V94.858L119.179 94.102C120.887 94.634 122.441 94.9 123.841 94.9ZM148.483 97.378C146.607 97.378 144.941 96.958 143.485 96.118C142.057 95.25 140.937 93.99 140.125 92.338C139.313 90.686 138.907 88.67 138.907 86.29C138.907 83.854 139.327 81.754 140.167 79.99C141.007 78.226 142.197 76.868 143.737 75.916C145.277 74.936 147.083 74.446 149.155 74.446C151.115 74.446 152.725 74.866 153.985 75.706C155.273 76.518 156.225 77.652 156.841 79.108C157.485 80.564 157.807 82.23 157.807 84.106C157.807 84.414 157.793 84.722 157.765 85.03C157.737 85.338 157.695 85.716 157.639 86.164H141.469V83.77H154.699L154.321 84.022C154.349 82.762 154.195 81.6 153.859 80.536C153.523 79.472 152.949 78.618 152.137 77.974C151.325 77.33 150.247 77.008 148.903 77.008C147.475 77.008 146.271 77.386 145.291 78.142C144.311 78.898 143.583 79.934 143.107 81.25C142.631 82.566 142.393 84.092 142.393 85.828C142.393 87.676 142.659 89.272 143.191 90.616C143.723 91.932 144.493 92.954 145.501 93.682C146.537 94.41 147.797 94.774 149.281 94.774C150.317 94.774 151.451 94.578 152.683 94.186C153.915 93.766 155.189 93.136 156.505 92.296L157.723 94.186C156.155 95.25 154.587 96.048 153.019 96.58C151.451 97.112 149.939 97.378 148.483 97.378ZM171.283 97.378C169.491 97.378 167.867 96.944 166.411 96.076C164.983 95.18 163.849 93.892 163.009 92.212C162.197 90.532 161.791 88.516 161.791 86.164C161.791 84.12 162.071 82.37 162.631 80.914C163.219 79.43 164.003 78.212 164.983 77.26C165.963 76.308 167.083 75.608 168.343 75.16C169.631 74.684 170.961 74.446 172.333 74.446C173.453 74.446 174.643 74.6 175.903 74.908C177.191 75.216 178.311 75.636 179.263 76.168L179.095 81.418H176.827L176.281 77.47L176.617 77.848C175.917 77.512 175.175 77.274 174.391 77.134C173.607 76.994 172.907 76.924 172.291 76.924C170.835 76.924 169.575 77.302 168.511 78.058C167.475 78.786 166.677 79.822 166.117 81.166C165.557 82.51 165.277 84.106 165.277 85.954C165.277 87.858 165.571 89.468 166.159 90.784C166.747 92.1 167.545 93.094 168.553 93.766C169.589 94.438 170.751 94.774 172.039 94.774C173.047 94.774 174.111 94.564 175.231 94.144C176.351 93.724 177.513 93.094 178.717 92.254L179.893 94.102C178.437 95.222 176.981 96.048 175.525 96.58C174.069 97.112 172.655 97.378 171.283 97.378ZM189.091 94.858L188.713 94.396L192.367 95.194V97H182.455V95.194L186.109 94.396L185.731 94.858V77.134L186.067 77.512L182.455 76.756V74.95L189.091 74.698V94.858ZM187.159 70.162C186.515 70.162 185.983 69.952 185.563 69.532C185.143 69.112 184.933 68.538 184.933 67.81C184.933 67.054 185.143 66.48 185.563 66.088C186.011 65.668 186.557 65.458 187.201 65.458C187.873 65.458 188.419 65.654 188.839 66.046C189.259 66.438 189.469 67.026 189.469 67.81C189.469 68.566 189.245 69.154 188.797 69.574C188.349 69.966 187.803 70.162 187.159 70.162ZM211.694 95.11L211.148 94.354L215.012 95.11V96.958L209.132 97.21L208.628 93.178L208.922 93.304C207.69 94.648 206.36 95.67 204.932 96.37C203.504 97.042 202.118 97.378 200.774 97.378C199.15 97.378 197.778 96.86 196.658 95.824C195.538 94.788 194.978 93.22 194.978 91.12C194.978 89.468 195.328 88.208 196.028 87.34C196.728 86.444 197.694 85.814 198.926 85.45C200.158 85.086 201.586 84.904 203.21 84.904H208.712L208.334 85.324V81.292C208.334 79.752 207.928 78.66 207.116 78.016C206.304 77.344 205.184 77.008 203.756 77.008C203 77.008 202.188 77.092 201.32 77.26C200.48 77.4 199.584 77.638 198.632 77.974L199.136 77.428L198.716 81.25H196.49L196.154 76.042C197.75 75.51 199.248 75.118 200.648 74.866C202.048 74.586 203.336 74.446 204.512 74.446C206.752 74.446 208.502 74.95 209.762 75.958C211.05 76.938 211.694 78.52 211.694 80.704V95.11ZM198.38 90.826C198.38 92.198 198.702 93.206 199.346 93.85C200.018 94.494 200.858 94.816 201.866 94.816C202.846 94.816 203.924 94.522 205.1 93.934C206.304 93.318 207.466 92.492 208.586 91.456L208.334 92.338V86.71L208.712 87.088H203.714C201.726 87.088 200.34 87.396 199.556 88.012C198.772 88.6 198.38 89.538 198.38 90.826ZM223.491 94.858L223.113 94.396L226.767 95.194V97H216.813V95.194L220.467 94.396L220.131 94.858V67.054L220.467 67.432L216.813 66.676V64.87L223.491 64.576V94.858Z" fill="#FAFAFA"/>
<path d="M98.812 150.096C98.812 151.819 99.2653 153.224 100.172 154.312C101.079 155.4 102.28 156.307 103.776 157.032C105.317 157.712 106.995 158.324 108.808 158.868C110.621 159.412 112.435 160.024 114.248 160.704C116.061 161.339 117.716 162.155 119.212 163.152C120.708 164.104 121.909 165.373 122.816 166.96C123.768 168.501 124.244 170.451 124.244 172.808C124.244 175.981 123.428 178.588 121.796 180.628C120.209 182.668 118.079 184.187 115.404 185.184C112.729 186.136 109.805 186.612 106.632 186.612C104.365 186.612 102.053 186.385 99.696 185.932C97.3387 185.433 95.0267 184.708 92.76 183.756L93.168 172.604H96.5L97.656 181.308L96.976 180.152C98.5627 180.877 100.217 181.421 101.94 181.784C103.663 182.147 105.34 182.328 106.972 182.328C109.103 182.328 111.052 182.011 112.82 181.376C114.588 180.696 116.016 179.721 117.104 178.452C118.192 177.137 118.736 175.505 118.736 173.556C118.736 171.743 118.26 170.292 117.308 169.204C116.401 168.071 115.2 167.141 113.704 166.416C112.208 165.691 110.553 165.056 108.74 164.512C106.927 163.968 105.113 163.401 103.3 162.812C101.487 162.177 99.832 161.384 98.336 160.432C96.84 159.48 95.616 158.256 94.664 156.76C93.7573 155.219 93.304 153.269 93.304 150.912C93.304 148.011 94.0067 145.608 95.412 143.704C96.8627 141.755 98.812 140.304 101.26 139.352C103.753 138.4 106.519 137.924 109.556 137.924C111.687 137.924 113.908 138.151 116.22 138.604C118.532 139.057 120.799 139.76 123.02 140.712L122.476 151.388H119.076L118.056 143.228L118.872 144.044C117.512 143.455 116.039 143.001 114.452 142.684C112.865 142.367 111.279 142.208 109.692 142.208C107.833 142.208 106.065 142.48 104.388 143.024C102.711 143.523 101.351 144.361 100.308 145.54C99.3107 146.673 98.812 148.192 98.812 150.096ZM182.96 183.008L181.396 181.648L187.788 183.076V186H170.108V183.076L177.18 181.716L176.636 182.668L173.032 171.788L174.052 172.604H153.244L154.196 171.788L150.32 182.532L149.98 181.784L156.916 183.076V186H140.188V183.076L146.444 181.648L145.016 182.872L161.608 138.604L167.252 138.4L182.96 183.008ZM154.944 169.408L154.4 168.524H172.964L172.352 169.476L163.444 141.8L164.736 141.868L154.944 169.408ZM232.037 173.896H235.437V186H203.001V183.076L209.665 181.716L208.849 182.872V141.8L209.665 143.024L203.001 141.8V138.876L221.089 138.536V141.46L213.677 143.024L214.425 141.8V182.872L213.405 181.852H231.697L230.745 182.872L232.037 173.896ZM285.127 174.848H288.527V186H254.187V183.076L260.919 181.648L260.035 182.872V141.8L260.919 143.024L254.187 141.8V138.876L265.543 138.536H287.711V149.28H284.311L283.087 141.8L284.243 142.684H264.591L265.611 141.664V160.704L264.591 159.684H282.747V163.764H264.591L265.611 162.608V182.872L264.591 181.852H285.127L283.903 182.872L285.127 174.848Z" fill="#FAFAFA"/>
<path d="M90.924 280V275.172C96.2733 270.321 100.716 266.083 104.252 262.456C107.833 258.829 110.485 255.588 112.208 252.732C113.976 249.876 114.86 247.156 114.86 244.572C114.86 241.716 113.908 239.608 112.004 238.248C110.1 236.888 107.697 236.208 104.796 236.208C103.481 236.208 102.008 236.367 100.376 236.684C98.7893 237.001 97.1573 237.432 95.48 237.976L96.228 236.888L95.276 245.116H91.808L91.196 234.508C93.78 233.692 96.296 233.057 98.744 232.604C101.237 232.151 103.527 231.924 105.612 231.924C108.559 231.924 111.165 232.355 113.432 233.216C115.699 234.032 117.489 235.324 118.804 237.092C120.119 238.815 120.776 241.059 120.776 243.824C120.776 246.952 119.892 250.103 118.124 253.276C116.356 256.404 113.727 259.804 110.236 263.476C106.791 267.148 102.507 271.387 97.384 276.192L97.316 275.444H121.932V280H90.924ZM160.076 280.612C156.223 280.612 153.027 279.728 150.488 277.96C147.995 276.192 146.136 273.54 144.912 270.004C143.734 266.468 143.144 262.025 143.144 256.676C143.144 251.145 143.779 246.567 145.048 242.94C146.318 239.268 148.29 236.525 150.964 234.712C153.639 232.853 156.994 231.924 161.028 231.924C164.972 231.924 168.146 232.763 170.548 234.44C172.996 236.117 174.764 238.679 175.852 242.124C176.986 245.569 177.552 249.944 177.552 255.248C177.552 260.869 176.918 265.561 175.648 269.324C174.379 273.087 172.43 275.92 169.8 277.824C167.216 279.683 163.975 280.612 160.076 280.612ZM160.28 276.26C162.91 276.26 165.063 275.512 166.74 274.016C168.418 272.52 169.664 270.276 170.48 267.284C171.296 264.247 171.727 260.416 171.772 255.792C171.818 250.987 171.432 247.179 170.616 244.368C169.8 241.512 168.576 239.449 166.944 238.18C165.312 236.911 163.272 236.276 160.824 236.276C158.104 236.276 155.86 237.024 154.092 238.52C152.324 239.971 151.01 242.192 150.148 245.184C149.332 248.131 148.924 251.871 148.924 256.404C148.924 260.937 149.332 264.677 150.148 267.624C150.964 270.525 152.211 272.701 153.888 274.152C155.566 275.557 157.696 276.26 160.28 276.26ZM206.291 280.612L238.115 231.924H242.807L210.915 280.612H206.291ZM210.847 256.2C207.175 256.2 204.409 255.112 202.551 252.936C200.737 250.76 199.831 247.859 199.831 244.232C199.831 240.56 200.783 237.591 202.687 235.324C204.591 233.057 207.492 231.924 211.391 231.924C215.153 231.924 217.896 232.989 219.619 235.12C221.341 237.205 222.203 239.971 222.203 243.416C222.203 247.269 221.251 250.375 219.347 252.732C217.443 255.044 214.609 256.2 210.847 256.2ZM210.983 252.936C213.521 252.936 215.312 252.12 216.355 250.488C217.397 248.811 217.941 246.589 217.987 243.824C217.987 240.968 217.465 238.815 216.423 237.364C215.425 235.913 213.725 235.188 211.323 235.188C208.693 235.188 206.812 235.981 205.679 237.568C204.591 239.155 204.047 241.376 204.047 244.232C204.047 246.952 204.591 249.083 205.679 250.624C206.767 252.165 208.535 252.936 210.983 252.936ZM237.707 280.612C234.035 280.612 231.269 279.524 229.411 277.348C227.597 275.172 226.691 272.293 226.691 268.712C226.691 265.04 227.643 262.071 229.547 259.804C231.451 257.537 234.352 256.404 238.251 256.404C242.059 256.404 244.801 257.447 246.479 259.532C248.201 261.617 249.063 264.405 249.063 267.896C249.063 271.704 248.111 274.787 246.207 277.144C244.348 279.456 241.515 280.612 237.707 280.612ZM237.843 277.348C240.381 277.348 242.172 276.532 243.215 274.9C244.257 273.223 244.801 271.024 244.847 268.304C244.892 265.448 244.393 263.295 243.351 261.844C242.353 260.348 240.631 259.6 238.183 259.6C235.599 259.6 233.74 260.416 232.607 262.048C231.519 263.635 230.975 265.833 230.975 268.644C230.975 271.364 231.519 273.495 232.607 275.036C233.695 276.577 235.44 277.348 237.843 277.348ZM318.688 280.612C314.789 280.612 311.276 279.728 308.148 277.96C305.065 276.192 302.617 273.54 300.804 270.004C299.036 266.423 298.152 262.003 298.152 256.744C298.152 252.619 298.696 249.015 299.784 245.932C300.917 242.804 302.481 240.197 304.476 238.112C306.471 236.027 308.76 234.485 311.344 233.488C313.973 232.445 316.784 231.924 319.776 231.924C322.677 231.924 325.397 232.423 327.936 233.42C330.475 234.372 332.696 235.845 334.6 237.84C336.504 239.789 337.977 242.237 339.02 245.184C340.108 248.131 340.652 251.553 340.652 255.452C340.652 260.801 339.677 265.357 337.728 269.12C335.824 272.837 333.217 275.693 329.908 277.688C326.599 279.637 322.859 280.612 318.688 280.612ZM319.028 276.192C321.839 276.192 324.423 275.489 326.78 274.084C329.183 272.633 331.087 270.412 332.492 267.42C333.943 264.428 334.668 260.552 334.668 255.792C334.668 251.259 333.988 247.564 332.628 244.708C331.313 241.852 329.5 239.744 327.188 238.384C324.921 237.024 322.36 236.344 319.504 236.344C316.739 236.344 314.177 237.047 311.82 238.452C309.508 239.812 307.649 241.988 306.244 244.98C304.839 247.927 304.136 251.78 304.136 256.54C304.136 261.073 304.793 264.791 306.108 267.692C307.468 270.593 309.259 272.747 311.48 274.152C313.747 275.512 316.263 276.192 319.028 276.192ZM361.672 280V277.076L368.268 275.716L367.52 276.668V235.8L368.472 237.024L361.672 235.8V232.876L373.028 232.536H394.584L394.652 243.348H391.252L390.028 235.936L391.184 236.684H372.076L373.096 235.664V255.18L372.076 254.228H389.552V258.376H372.076L373.096 257.424V276.668L372.28 275.716L380.44 277.076V280H361.672ZM411.928 280V277.076L418.524 275.716L417.776 276.668V235.8L418.728 237.024L411.928 235.8V232.876L423.284 232.536H444.84L444.908 243.348H441.508L440.284 235.936L441.44 236.684H422.332L423.352 235.664V255.18L422.332 254.228H439.808V258.376H422.332L423.352 257.424V276.668L422.536 275.716L430.696 277.076V280H411.928Z" fill="#FAFAFA"/>
<defs>
<filter id="filter0_d_956_357" x="0" y="0" width="526" height="501" filterUnits="userSpaceOnUse" color-interpolation-filters="sRGB">
<feFlood flood-opacity="0" result="BackgroundImageFix"/>
<feColorMatrix in="SourceAlpha" type="matrix" values="0 0 0 0 0 0 0 0 0 0 0 0 0 0 0 0 0 0 127 0" result="hardAlpha"/>
<feOffset dy="4"/>
<feGaussianBlur stdDeviation="2"/>
<feComposite in2="hardAlpha" operator="out"/>
<feColorMatrix type="matrix" values="0 0 0 0 0 0 0 0 0 0 0 0 0 0 0 0 0 0 0.25 0"/>
<feBlend mode="normal" in2="BackgroundImageFix" result="effect1_dropShadow_956_357"/>
<feBlend mode="normal" in="SourceGraphic" in2="effect1_dropShadow_956_357" result="shape"/>
</filter>
</defs>
</svg>
